<svg xmlns="http://www.w3.org/2000/svg" viewBox="0 0 32 32"><g id="_100ChartlineSolid" data-name="100ChartlineSolid"><path d="M25,4H7A3,3,0,0,0,4,7V25a3,3,0,0,0,3,3H25a3,3,0,0,0,3-3V7A3,3,0,0,0,25,4ZM9.73,16.29A4.27,4.27,0,0,1,9,13.65,4.29,4.29,0,0,1,9.68,11a2.37,2.37,0,0,1,2.05-.92,2.58,2.58,0,0,1,2.08.91,4.25,4.25,0,0,1,.72,2.62,4.4,4.4,0,0,1-.69,2.65,2.44,2.44,0,0,1-2.11.93A2.35,2.35,0,0,1,9.73,16.29Zm2.12,5.45,6.36-11.45h1.9L13.76,21.73ZM22.3,21a2.41,2.41,0,0,1-2.1.93,2.37,2.37,0,0,1-2-.94,4.27,4.27,0,0,1-.72-2.64,4.36,4.36,0,0,1,.67-2.61,2.4,2.4,0,0,1,2.06-.92,2.56,2.56,0,0,1,2.07.91A4.23,4.23,0,0,1,23,18.3,4.42,4.42,0,0,1,22.3,21ZM21,18.32c0,.84-.08,2-.77,2a.66.66,0,0,1-.63-.53,5.59,5.59,0,0,1-.15-1.43,5.28,5.28,0,0,1,.15-1.4c.16-.47.43-.57.63-.57C20.76,16.35,21,17,21,18.32Zm-8.47-4.65c0,.84-.08,2-.77,2a.64.64,0,0,1-.62-.53A5.12,5.12,0,0,1,11,13.67a4.85,4.85,0,0,1,.16-1.4c.15-.47.42-.57.62-.57C12.29,11.7,12.54,12.34,12.54,13.67Z"/></g></svg>