<svg xmlns="http://www.w3.org/2000/svg" viewBox="0 0 32 32"><g id="addImage"><path d="M25,28H7a3,3,0,0,1-3-3V7A3,3,0,0,1,7,4h9a1,1,0,0,1,0,2H7A1,1,0,0,0,6,7V25a1,1,0,0,0,1,1H25a1,1,0,0,0,1-1V16a1,1,0,0,1,2,0v9A3,3,0,0,1,25,28ZM13,11.5h0A1.5,1.5,0,0,0,11.5,10h0A1.5,1.5,0,0,0,10,11.5h0A1.5,1.5,0,0,0,11.5,13h0A1.5,1.5,0,0,0,13,11.5Zm9.71,8.79-3-3a1,1,0,0,0-1.41,0L17,18.53l-2.27-2.27a1,1,0,0,0-1.41,0l-4,4a1,1,0,0,0-.21,1.09A1,1,0,0,0,10,22H22a1,1,0,0,0,.92-.62A1,1,0,0,0,22.71,20.29ZM27,7H25V5a1,1,0,0,0-2,0V7H21a1,1,0,0,0,0,2h2v2a1,1,0,0,0,2,0V9h2a1,1,0,0,0,0-2Z"/></g></svg>