<svg xmlns="http://www.w3.org/2000/svg" viewBox="0 0 32 32"><g id="mypage_alerts."><path d="M27.9,25.57l-1.9-4V15.47a10.82,10.82,0,0,0-1.08-4.73h0a4,4,0,1,0-6-5.27A9.56,9.56,0,0,0,17,5.05V3a1,1,0,0,0-2,0V5.05A10.32,10.32,0,0,0,6,15.47v6.09l-1.9,4a1,1,0,0,0,.05,1A1,1,0,0,0,5,27h7.13a4,4,0,0,0,7.74,0H27a1,1,0,0,0,.85-.47A1,1,0,0,0,27.9,25.57ZM22,6a2,2,0,1,1-2,2A2,2,0,0,1,22,6ZM16,28a2,2,0,0,1-1.73-1h3.46A2,2,0,0,1,16,28ZM6.58,25,7.9,22.22a.94.94,0,0,0,.1-.43V15.47A8.26,8.26,0,0,1,16,7a7.61,7.61,0,0,1,2.07.29A3.35,3.35,0,0,0,18,8a4,4,0,0,0,5.21,3.81A8.79,8.79,0,0,1,24,15.47v6.32a.94.94,0,0,0,.1.43L25.42,25Z"/></g></svg>