<svg xmlns="http://www.w3.org/2000/svg" viewBox="0 0 32 32"><g id="surveylist_analyze"><path d="M7.25,28h-.5a3,3,0,0,1-3-3V13a3,3,0,0,1,3-3h.5a3,3,0,0,1,3,3V25A3,3,0,0,1,7.25,28Zm-.5-16a1,1,0,0,0-1,1V25a1,1,0,0,0,1,1h.5a1,1,0,0,0,1-1V13a1,1,0,0,0-1-1Zm9.5,16h-.5a3,3,0,0,1-3-3V7a3,3,0,0,1,3-3h.5a3,3,0,0,1,3,3V25A3,3,0,0,1,16.25,28Zm-.5-22a1,1,0,0,0-1,1V25a1,1,0,0,0,1,1h.5a1,1,0,0,0,1-1V7a1,1,0,0,0-1-1Zm9.5,22h-.5a3,3,0,0,1-3-3V15a3,3,0,0,1,3-3h.5a3,3,0,0,1,3,3V25A3,3,0,0,1,25.25,28Zm-.5-14a1,1,0,0,0-1,1V25a1,1,0,0,0,1,1h.5a1,1,0,0,0,1-1V15a1,1,0,0,0-1-1Z"/></g></svg>