<svg id="Layer_1" data-name="Layer 1" xmlns="http://www.w3.org/2000/svg" viewBox="0 0 60 60"><defs><style>.cls-1{fill:#dfdedd;}.cls-2{fill:#818181;}</style></defs><path id="Rectangle_4016" data-name="Rectangle 4016" class="cls-1" d="M1,14.46H44.07a1,1,0,0,1,1,1V59a1,1,0,0,1-1,1H1a1,1,0,0,1-1-1V15.43A1,1,0,0,1,1,14.46Z"/><path class="cls-2" d="M43.91,27.9a1,1,0,0,1,0,1.37.94.94,0,0,1-.68.28,1,1,0,0,1-.68-.28l-5.07-5.13-5.06,5.13a.94.94,0,0,1-.68.28,1,1,0,0,1-.68-1.65l5.07-5.12-5.07-5.14a1,1,0,0,1,1.36-1.36l5.06,5.12,5.07-5.12a1,1,0,0,1,1.36,1.36l-5.06,5.14Z"/><g id="Group_11610" data-name="Group 11610"><g id="Group_11602" data-name="Group 11602"><path id="Path_10242" data-name="Path 10242" class="cls-2" d="M59,45.54H56.17a1,1,0,0,1,0-1.94h1.91V41.66a1,1,0,1,1,1.92,0v2.91A1,1,0,0,1,59,45.54Z"/></g><g id="Group_11603" data-name="Group 11603"><path id="Path_10243" data-name="Path 10243" class="cls-2" d="M47.87,45.54H41.64a1,1,0,0,1,0-1.94h6.23a1,1,0,0,1,0,1.94Zm-14.53,0H27.11a1,1,0,0,1,0-1.94h6.23a1,1,0,0,1,0,1.94Z"/></g><g id="Group_11604" data-name="Group 11604"><path id="Path_10244" data-name="Path 10244" class="cls-2" d="M18.81,45.54H15.93a1,1,0,0,1-1-1V41.66a1,1,0,0,1,1.92,0V43.6h1.92a1,1,0,0,1,0,1.94Z"/></g><g id="Group_11605" data-name="Group 11605"><path id="Path_10245" data-name="Path 10245" class="cls-2" d="M15.93,34.24a1,1,0,0,1-1-1V27a1,1,0,1,1,1.92,0v6.3A1,1,0,0,1,15.93,34.24Zm0-14.7a1,1,0,0,1-1-1v-6.3a1,1,0,1,1,1.92,0v6.3A1,1,0,0,1,15.93,19.54Z"/></g><g id="Group_11606" data-name="Group 11606"><path id="Path_10246" data-name="Path 10246" class="cls-2" d="M15.93,4.84a1,1,0,0,1-1-1V1a1,1,0,0,1,1-1h2.88a1,1,0,0,1,1,1,1,1,0,0,1-1,1H16.89V3.88A1,1,0,0,1,15.93,4.84Z"/></g><g id="Group_11607" data-name="Group 11607"><path id="Path_10247" data-name="Path 10247" class="cls-2" d="M47.86,1.94H41.64a1,1,0,0,1,0-1.94h6.22a1,1,0,0,1,0,1.94Zm-14.52,0H27.11a1,1,0,0,1,0-1.94h6.23a1,1,0,0,1,.95,1A1,1,0,0,1,33.34,1.94Z"/></g><g id="Group_11608" data-name="Group 11608"><path id="Path_10248" data-name="Path 10248" class="cls-2" d="M59,4.84a1,1,0,0,1-1-1V1.94H56.17a1,1,0,0,1,0-1.94H59a1,1,0,0,1,1,1V3.88A1,1,0,0,1,59,4.84Z"/></g><g id="Group_11609" data-name="Group 11609"><path id="Path_10249" data-name="Path 10249" class="cls-2" d="M59,34.24a1,1,0,0,1-1-1V27A1,1,0,1,1,60,27v6.3A1,1,0,0,1,59,34.24Zm0-14.7a1,1,0,0,1-1-1v-6.3a1,1,0,1,1,1.92,0v6.3A1,1,0,0,1,59,19.54Z"/></g></g></svg>