<svg xmlns="http://www.w3.org/2000/svg" viewBox="0 0 32 32"><g id="imgUpload"><path d="M25,28H7a3,3,0,0,1-3-3V12A3,3,0,0,1,7,9H9a1,1,0,0,1,0,2H7a1,1,0,0,0-1,1V25a1,1,0,0,0,1,1H25a1,1,0,0,0,1-1V12a1,1,0,0,0-1-1H23a1,1,0,0,1,0-2h2a3,3,0,0,1,3,3V25A3,3,0,0,1,25,28Zm-2.29-5.71-3-3a1,1,0,0,0-1.41,0L17,20.53l-2.27-2.27a1,1,0,0,0-1.41,0l-4,4a1,1,0,0,0-.21,1.09A1,1,0,0,0,10,24H22a1,1,0,0,0,.92-.62A1,1,0,0,0,22.71,22.29Zm-2.5-14.5-3.5-3.5a1,1,0,0,0-.32-.21.37.37,0,0,0-.14,0,.85.85,0,0,0-.5,0,.37.37,0,0,0-.14,0,1,1,0,0,0-.32.21l-3.5,3.5a1,1,0,0,0,1.42,1.42L15,7.41V16a1,1,0,0,0,2,0V7.41l1.79,1.8a1,1,0,0,0,1.42,0A1,1,0,0,0,20.21,7.79Z"/></g></svg>