<svg xmlns="http://www.w3.org/2000/svg" viewBox="0 0 32 32"><g id="mypage_reward"><path d="M25,8H21.9a2.92,2.92,0,0,0,.1-.73V7a3,3,0,0,0-3-3,4,4,0,0,0-3,1.35A4,4,0,0,0,13,4a3,3,0,0,0-3,3v.25a2.92,2.92,0,0,0,.1.73H7a3,3,0,0,0-3,3v3a3,3,0,0,0,1,2.23V25a3,3,0,0,0,3,3H24a3,3,0,0,0,3-3V16.23A3,3,0,0,0,28,14V11A3,3,0,0,0,25,8ZM12,26H8a1,1,0,0,1-1-1V17h5Zm0-11H7a1,1,0,0,1-1-1V11a1,1,0,0,1,1-1h5Zm.73-7A.73.73,0,0,1,12,7.27V7a1,1,0,0,1,1-1,2,2,0,0,1,2,2V8ZM18,26H14V10h4ZM19.27,8H17V8a2,2,0,0,1,2-2,1,1,0,0,1,1,1v.25A.73.73,0,0,1,19.27,8ZM25,25a1,1,0,0,1-1,1H20V17h5Zm1-11a1,1,0,0,1-1,1H20V10h5a1,1,0,0,1,1,1ZM13,8h2V8Z"/></g></svg>