<svg xmlns="http://www.w3.org/2000/svg" viewBox="0 0 32 32"><g id="scoringSolid"><path d="M25,4H7A3,3,0,0,0,4,7V25a3,3,0,0,0,3,3H25a3,3,0,0,0,3-3V7A3,3,0,0,0,25,4ZM16.55,14.63l0,0c2.05-.28,2.78-1.34,2.78-2.25V12a0,0,0,0,1,.05-.05H21A.05.05,0,0,1,21,12v.36c0,.91.73,2,2.77,2.25a.05.05,0,0,1,0,0,0,0,0,0,1,0,0l-.56,1.16a0,0,0,0,1,0,0h0a4.23,4.23,0,0,1-3-1.67,4.21,4.21,0,0,1-3,1.67.05.05,0,0,1,0,0l-.55-1.16A0,0,0,0,1,16.55,14.63ZM8.73,16.75s0,0,0,0L8,15.57a.06.06,0,0,1,0,0l0,0a2.46,2.46,0,0,0,1.87-2.17H8.38a0,0,0,0,1-.05-.05V12.14a.05.05,0,0,1,.05-.05h4.54a.05.05,0,0,1,.05.05v1.14a0,0,0,0,1-.05.05H11.48a2.37,2.37,0,0,0,1.77,2l0,0a0,0,0,0,1,0,0l-.71,1.12a0,0,0,0,1-.06,0,3,3,0,0,1-1.82-1.46,3.25,3.25,0,0,1-1.95,1.61A0,0,0,0,1,8.73,16.75Zm6.53,3.37a0,0,0,0,1,0,.05H9.51a0,0,0,0,1,0-.05v-3.2a0,0,0,0,1,0-.05h5.7a0,0,0,0,1,0,.05Zm0-3.5a.05.05,0,0,1,0,.05H13.76a.05.05,0,0,1,0-.05V14.84h-1a0,0,0,0,1,0-.05V13.63a.05.05,0,0,1,0-.05h1v-1.8a.05.05,0,0,1,0,0h1.45a.05.05,0,0,1,0,0Zm8.78.85H20.92v2.74s0,.05,0,.05H19.42a.05.05,0,0,1-.05-.05V17.48h-3a0,0,0,0,1-.05-.05V16.27a.05.05,0,0,1,.05-.05H24a.05.05,0,0,1,.05.05v1.16S24,17.46,24,17.47Zm-13,.62h2.75V19H11Z"/></g></svg>