<svg xmlns="http://www.w3.org/2000/svg" viewBox="0 0 32 32"><defs><style>.cls-1{opacity:0.99;}</style></defs><g id="semiCircleChartSolid"><path class="cls-1" d="M25,4H7A3,3,0,0,0,4,7V25a3,3,0,0,0,3,3H25a3,3,0,0,0,3-3V7A3,3,0,0,0,25,4ZM23.94,22a1,1,0,0,1-.71.29H9A1,1,0,0,1,8.29,22,1,1,0,0,1,8,21.27a8.12,8.12,0,0,1,8.11-8.11h0a7.85,7.85,0,0,1,2.56.42l1.4-3.25a1,1,0,0,1,1.84.79l-1.43,3.33a7.39,7.39,0,0,1,1.36,1.09,8,8,0,0,1,2.38,5.73A1,1,0,0,1,23.94,22Zm-7.83-5.29A4.55,4.55,0,0,0,12.87,18a4.49,4.49,0,0,0-1.23,2.24H10.08a6.13,6.13,0,0,1,6-5.11h0a6.16,6.16,0,0,1,1.77.26l-.62,1.42a4.37,4.37,0,0,0-1.15-.15Zm0,0A4.55,4.55,0,0,0,12.87,18a4.49,4.49,0,0,0-1.23,2.24H10.08a6.13,6.13,0,0,1,6-5.11h0a6.16,6.16,0,0,1,1.77.26l-.62,1.42a4.37,4.37,0,0,0-1.15-.15Zm0,0A4.55,4.55,0,0,0,12.87,18a4.49,4.49,0,0,0-1.23,2.24H10.08a6.13,6.13,0,0,1,6-5.11h0a6.16,6.16,0,0,1,1.77.26l-.62,1.42a4.37,4.37,0,0,0-1.15-.15Zm2.39,3.58H13.73a2.59,2.59,0,0,1,4.77,0Zm0,0H13.73a2.59,2.59,0,0,1,4.77,0Zm0,0H13.73a2.59,2.59,0,0,1,4.77,0ZM20.44,17a6,6,0,0,1,1.71,3.32H20.59a4.56,4.56,0,0,0-1.53-2.51l.62-1.44A5,5,0,0,1,20.44,17Zm0,0a6,6,0,0,1,1.71,3.32H20.59a4.56,4.56,0,0,0-1.53-2.51l.62-1.44A5,5,0,0,1,20.44,17Zm0,0a6,6,0,0,1,1.71,3.32H20.59a4.56,4.56,0,0,0-1.53-2.51l.62-1.44A5,5,0,0,1,20.44,17Z"/></g></svg>