<svg id="Layer_1" data-name="Layer 1" xmlns="http://www.w3.org/2000/svg" xmlns:xlink="http://www.w3.org/1999/xlink" viewBox="0 0 33 33">
    <defs>
        <style>.cls-1{fill:none;}.cls-2{clip-path:url(#clip-path);}.cls-3{fill:#fac609;}.cls-4{fill:#fff;}</style>
        <clipPath id="clip-path">
            <rect class="cls-1" width="33" height="33" />
        </clipPath>
    </defs>
    <title>mypage_icon</title>
    <g class="cls-2">
        <rect id="Rectangle_1625" data-name="Rectangle 1625" class="cls-3" width="33" height="33" rx="4.13" />
    </g>
    <path class="cls-4" d="M7.78,13.79v5.78H6.22V15.1H5.36V13.79Z" />
    <path class="cls-4" d="M8.72,16.69c0-1.85,1-3,2.53-3s2.53,1.19,2.53,3-1,3-2.53,3S8.72,18.53,8.72,16.69Zm3.47,0c0-1.06-.34-1.66-.94-1.66s-.95.59-.95,1.66.34,1.65.95,1.65S12.19,17.76,12.19,16.69Z" />
    <path class="cls-4" d="M14.45,16.69c0-1.85,1-3,2.53-3s2.53,1.19,2.53,3-1,3-2.53,3S14.45,18.53,14.45,16.69Zm3.47,0c0-1.06-.34-1.66-.94-1.66s-.95.59-.95,1.66.34,1.65.95,1.65S17.92,17.76,17.92,16.69Z" />
    <path class="cls-4" d="M27.27,16.23a1.46,1.46,0,0,0-1.18-.52,1.37,1.37,0,0,0-1.18.53,2.43,2.43,0,0,0-.38,1.45,2.36,2.36,0,0,0,.41,1.47,1.36,1.36,0,0,0,1.15.54,1.39,1.39,0,0,0,1.2-.54,2.42,2.42,0,0,0,.39-1.47A2.35,2.35,0,0,0,27.27,16.23Zm-1.16.52c.26,0,.31.52.31.95s-.05.95-.31.95c-.11,0-.19-.07-.24-.22a2.73,2.73,0,0,1-.08-.73,2.65,2.65,0,0,1,.08-.72C25.92,16.83,26,16.75,26.11,16.75Z" />
    <path class="cls-4" d="M26.17,13.34a0,0,0,0,1,0,.05l-3.44,6.2a.05.05,0,0,1-.05,0H21.56l0,0a0,0,0,0,1,0-.05L25,13.35a.05.05,0,0,1,.05,0h1.12Z" />
    <path class="cls-4" d="M22.75,13.76a1.44,1.44,0,0,0-1.18-.53,1.35,1.35,0,0,0-1.17.53A2.41,2.41,0,0,0,20,15.22a2.38,2.38,0,0,0,.41,1.47,1.41,1.41,0,0,0,1.15.53,1.43,1.43,0,0,0,1.21-.53,2.47,2.47,0,0,0,.39-1.47A2.27,2.27,0,0,0,22.75,13.76Zm-1.16,2.43c-.11,0-.19-.08-.23-.23a2.33,2.33,0,0,1-.08-.73,2.22,2.22,0,0,1,.08-.72c0-.15.12-.22.23-.22s.17,0,.24.22a2.54,2.54,0,0,1,.08.72,2.68,2.68,0,0,1-.08.73C21.78,16.11,21.7,16.19,21.59,16.19Z" />
</svg>