<svg id="Layer_1" data-name="Layer 1" xmlns="http://www.w3.org/2000/svg" viewBox="0 0 53.38 63.02"><defs><style>.cls-1{fill:#3b3939;}.cls-2{fill:none;stroke:#3b3939;stroke-linecap:round;stroke-linejoin:round;stroke-width:2.5px;}</style></defs><title>ppt</title><path class="cls-1" d="M15.49,38.6a5.56,5.56,0,0,1,3.78,1.1,4,4,0,0,1,1.22,3.1A5.17,5.17,0,0,1,20,45a3.82,3.82,0,0,1-1.61,1.68,6.1,6.1,0,0,1-3,.65H14.24v4.59H11.07V38.6Zm-.11,2.6H14.24v3.54h.84a2.68,2.68,0,0,0,1.58-.43,1.58,1.58,0,0,0,.62-1.42C17.28,41.76,16.65,41.2,15.38,41.2Z"/><path class="cls-1" d="M26.94,38.6a5.52,5.52,0,0,1,3.78,1.1,4,4,0,0,1,1.22,3.1A5.17,5.17,0,0,1,31.46,45a3.82,3.82,0,0,1-1.61,1.68,6.07,6.07,0,0,1-3,.65H25.69v4.59H22.52V38.6Zm-.11,2.6H25.69v3.54h.84a2.69,2.69,0,0,0,1.59-.43,1.6,1.6,0,0,0,.61-1.42C28.73,41.76,28.1,41.2,26.83,41.2Z"/><path class="cls-1" d="M39.44,51.93H36.27V41.23H32.82V38.6H42.89v2.63H39.44Z"/><polygon class="cls-2" points="52.13 20.42 52.13 61.77 1.25 61.77 1.25 1.25 32.21 1.25 52.13 20.42"/><path class="cls-2" d="M12.13,21.78H25.06V8.34A13.19,13.19,0,0,0,12.13,21.78Z"/><polyline class="cls-2" points="51.17 20.42 32 20.42 32 1.25"/><path class="cls-2" d="M15.24,22.38a10.23,10.23,0,0,0,20.46,0V20.63"/><path class="cls-2" d="M25.59,12A10.32,10.32,0,0,1,32,14.2"/></svg>