<svg id="Layer_1" data-name="Layer 1" xmlns="http://www.w3.org/2000/svg" viewBox="0 0 83.85 21.91"><defs><style>.cls-1{isolation:isolate;}.cls-2{fill:#fac609;}</style></defs><title>s-104</title><g id="설문상세"><g class="cls-1"><path class="cls-2" d="M36.6,11a5.18,5.18,0,0,1-3.12-2.76,5.44,5.44,0,0,1-3.31,3.06l-.8-1.22a4.45,4.45,0,0,0,3.3-4.24V4.68h1.55V5.82a4.27,4.27,0,0,0,3.19,4Zm4.5,5.45v1.21H31.85V14.13H39.1V13.05H31.82v-1.2h8.81v3.42H33.37v1.16Zm-2-8.67H36.35V6.51h2.74V4.25h1.54v7H39.09Z"/><path class="cls-2" d="M55.48,11.09v1.24H50.23v2.53H48.69V12.33H43.2V11.09Zm-9.24,5.2h7.88v1.26H44.7V13.64h1.54Zm7.65-6.54H44.76V4.86h9.13ZM52.38,6.09H46.27V8.52h6.11Z"/><path class="cls-2" d="M64.08,11.67A5.35,5.35,0,0,1,61,8.84a5.55,5.55,0,0,1-3.26,3.21l-.83-1.24a4.73,4.73,0,0,0,3.29-4.52V5h1.55V6.41a4.33,4.33,0,0,0,3.17,4.05Zm3.66,3.59c0,1.6-1.71,2.55-4.52,2.55s-4.51-.95-4.51-2.55,1.73-2.54,4.51-2.54S67.74,13.66,67.74,15.26Zm-1.53,0c0-.85-1.09-1.32-3-1.32s-3,.47-3,1.32,1.1,1.33,3,1.33S66.21,16.12,66.21,15.26Zm3.3-7.66V8.88H67.59v3.51H66V4.25h1.55V7.6Z"/><path class="cls-2" d="M75,7.88a6.54,6.54,0,0,0,2.64,5.62l-.87,1.2a6.15,6.15,0,0,1-2.5-3.59A6.56,6.56,0,0,1,71.57,15l-.95-1.17c1.92-1.14,2.85-3.57,2.85-5.88V5.51H75Zm3.18-3.36H79.6V17.18H78.15V10.26h-2V9h2Zm4.23-.26V17.81H80.91V4.26Z"/></g></g><g id="Group_7829-2" data-name="Group 7829-2"><g id="Group_7817" data-name="Group 7817"><g id="Line_681" data-name="Line 681"><path class="cls-2" d="M17.35,18.17l-4-4a3.84,3.84,0,0,0,.74-2.28,3.94,3.94,0,0,0-7-2.52.58.58,0,0,0-.19,0H4.63a.66.66,0,0,0,0,1.31H6.39a3.63,3.63,0,0,0-.21,1.24,4,4,0,0,0,3.94,3.94,3.84,3.84,0,0,0,2.28-.74l4,4a.65.65,0,0,0,.92,0A.66.66,0,0,0,17.35,18.17ZM7.48,11.86a2.64,2.64,0,0,1,5.28,0A2.6,2.6,0,0,1,12,13.72a2.63,2.63,0,0,1-4.5-1.86Z"/></g></g><g id="Group_7818" data-name="Group 7818"><g id="Path_4202" data-name="Path 4202"><path class="cls-2" d="M9.07,20.09H.65A.66.66,0,0,1,0,19.44V.65A.65.65,0,0,1,.65,0H16.9a.65.65,0,0,1,.65.65v11a.65.65,0,1,1-1.3,0V1.3H1.3V18.78H9.07a.66.66,0,0,1,0,1.31Z"/></g></g><g id="Line_682" data-name="Line 682"><path class="cls-2" d="M12.92,6.62H4.63a.66.66,0,0,1,0-1.31h8.29a.66.66,0,0,1,0,1.31Z"/></g></g></svg>