<svg id="Layer_1" data-name="Layer 1" xmlns="http://www.w3.org/2000/svg" viewBox="0 0 32 32"><defs><style>.cls-1{fill:#fac609;}.cls-2{fill:#fff;stroke:#fff;stroke-linecap:round;stroke-linejoin:round;stroke-width:1.5px;}</style></defs><path class="cls-1" d="M30.5,4V28A2.5,2.5,0,0,1,28,30.5H4A2.49,2.49,0,0,1,1.5,28V4A2.49,2.49,0,0,1,4,1.5H28A2.5,2.5,0,0,1,30.5,4Z"/><path class="cls-1" d="M28,0H4A4,4,0,0,0,0,4V28a4,4,0,0,0,4,4H28a4,4,0,0,0,4-4V4A4,4,0,0,0,28,0Zm2.5,28A2.5,2.5,0,0,1,28,30.5H4A2.49,2.49,0,0,1,1.5,28V4A2.49,2.49,0,0,1,4,1.5H28A2.5,2.5,0,0,1,30.5,4Z"/><polygon class="cls-2" points="25.92 9.63 25.92 20.94 18.25 20.94 15.97 23.21 13.7 20.94 6.03 20.94 6.03 9.63 25.92 9.63"/><path class="cls-1" d="M16.1,13.38l.43,1.32h1.39a.13.13,0,0,1,.07.23l-1.12.82.43,1.31a.13.13,0,0,1-.2.15L16,16.39l-1.12.82a.13.13,0,0,1-.2-.15l.43-1.31L14,14.93A.13.13,0,0,1,14,14.7h1.39l.43-1.32A.12.12,0,0,1,16.1,13.38Z"/><path class="cls-1" d="M10.9,13.38l.43,1.32h1.38a.13.13,0,0,1,.08.23l-1.12.82.43,1.31a.13.13,0,0,1-.2.15l-1.12-.82-1.13.82a.13.13,0,0,1-.2-.15l.43-1.31-1.12-.82a.13.13,0,0,1,.08-.23h1.38l.43-1.32A.13.13,0,0,1,10.9,13.38Z"/><path class="cls-1" d="M21.31,13.38l.43,1.32h1.38a.13.13,0,0,1,.08.23l-1.12.82.42,1.31a.13.13,0,0,1-.2.15l-1.12-.82-1.12.82a.13.13,0,0,1-.2-.15l.43-1.31-1.12-.82a.13.13,0,0,1,.08-.23h1.38l.43-1.32A.13.13,0,0,1,21.31,13.38Z"/></svg>