<svg id="Layer_1" data-name="Layer 1" xmlns="http://www.w3.org/2000/svg" viewBox="0 0 37.54 24"><defs><style>.cls-1{fill:#818282;}</style></defs><g id="Group_11383" data-name="Group 11383"><g id="Group_11382" data-name="Group 11382"><g id="Group_11379" data-name="Group 11379"><path id="Path_4686" data-name="Path 4686" class="cls-1" d="M.51,16.1H3.68V7.61H.93V5.4A10,10,0,0,0,4.62,4.05H7.25V16.1H9.94V19H.51Z"/></g><g id="Group_11380" data-name="Group 11380"><path id="Path_4687" data-name="Path 4687" class="cls-1" d="M12.78,16.94C16.52,13.55,19,10.84,19,8.67a1.86,1.86,0,0,0-1.6-2.09,2.06,2.06,0,0,0-.35,0A3.61,3.61,0,0,0,14.55,8l-2-1.93a6.28,6.28,0,0,1,5-2.31,4.55,4.55,0,0,1,4.89,4.17,3.15,3.15,0,0,1,0,.53c0,2.57-2.21,5.4-4.5,7.71a22.11,22.11,0,0,1,2.43-.2h2.75v3H12.78Z"/></g><g id="Group_11381" data-name="Group 11381"><path id="Path_4688" data-name="Path 4688" class="cls-1" d="M25.9,17.18l1.65-2.25a4.55,4.55,0,0,0,3.11,1.45C32,16.38,33,15.8,33,14.67s-.68-2-3.82-2V10.12c2.55,0,3.36-.79,3.36-2a1.49,1.49,0,0,0-1.71-1.59,4,4,0,0,0-2.67,1.25L26.3,5.62a7.07,7.07,0,0,1,4.64-1.85c3.09,0,5.12,1.45,5.12,4.12a3.41,3.41,0,0,1-2.41,3.29v.1a3.69,3.69,0,0,1,2.89,3.63c0,2.79-2.55,4.36-5.52,4.36A6.39,6.39,0,0,1,25.9,17.18Z"/></g></g></g></svg>