<svg id="Layer_1" data-name="Layer 1" xmlns="http://www.w3.org/2000/svg" viewBox="0 0 84.85 21.94"><defs><style>.cls-1{isolation:isolate;}.cls-2{fill:#fac609;}</style></defs><title>s</title><g id="Group_7826" data-name="Group 7826"><g id="설문종료" class="cls-1"><g class="cls-1"><path class="cls-2" d="M37.6,11a5.15,5.15,0,0,1-3.12-2.76,5.44,5.44,0,0,1-3.31,3.06l-.8-1.21a4.49,4.49,0,0,0,3.3-4.25V4.68h1.55V5.82a4.27,4.27,0,0,0,3.19,4Zm4.5,5.45v1.21H32.85V14.13h7.26V13.05h-7.3v-1.2h8.82v3.42H34.37v1.16Zm-2-8.67H37.35V6.51h2.74V4.25h1.54v7H40.09Z"/><path class="cls-2" d="M56.48,11.09v1.24H51.23v2.53H49.69V12.33H44.2V11.09Zm-9.24,5.2h7.88v1.26H45.7V13.64h1.54Zm7.65-6.54H45.76V4.86h9.13ZM53.38,6.09H47.27V8.52h6.11Z"/><path class="cls-2" d="M70.25,10.89v1.25H58V10.89h5.34V9.08h1.55v1.81ZM58.61,8.6c2.51-.26,4.24-1.31,4.46-2.51H59.14V4.85h10V6.09h-4c.21,1.2,2,2.25,4.46,2.51L69.1,9.8c-2.38-.26-4.24-1.22-5-2.61-.74,1.39-2.6,2.35-5,2.61Zm10.16,6.84c0,1.51-1.74,2.37-4.66,2.37s-4.67-.86-4.67-2.37,1.75-2.37,4.67-2.37S68.77,13.92,68.77,15.44Zm-1.56,0c0-.79-1.11-1.19-3.1-1.19S61,14.65,61,15.44s1.09,1.18,3.09,1.18S67.21,16.23,67.21,15.44Z"/><path class="cls-2" d="M84.08,14.94v1.28H71.81V14.94H75.1V12.6H73.3V8.25h7.8V6.45H73.27V5.21h9.36V9.48H74.81v1.88h8.12V12.6h-2v2.34Zm-7.45,0H79.4V12.6H76.63Z"/></g></g></g><g id="Group_7827" data-name="Group 7827"><g id="Rectangle_1763" data-name="Rectangle 1763"><path class="cls-2" d="M17.29,2H.65A.65.65,0,0,0,0,2.65V19.29a.65.65,0,0,0,.65.65H17.29a.65.65,0,0,0,.65-.65V2.65A.65.65,0,0,0,17.29,2Zm-.65,16.64H1.3V3.3H16.64Z"/></g><g id="Group_7828" data-name="Group 7828"><g id="Line_689" data-name="Line 689"><path class="cls-2" d="M12.33,13.41a.66.66,0,0,1,0,.92.65.65,0,0,1-.46.19.62.62,0,0,1-.46-.19L9,11.89,6.53,14.33a.65.65,0,0,1-.46.19.62.62,0,0,1-.46-.19.64.64,0,0,1,0-.92L8.05,11,5.61,8.53a.64.64,0,0,1,0-.92.66.66,0,0,1,.92,0L9,10.05l2.44-2.44a.65.65,0,1,1,.92.92L9.89,11Z"/></g></g></g></svg>