<svg id="Layer_1" data-name="Layer 1" xmlns="http://www.w3.org/2000/svg" viewBox="0 0 84.19 21.84"><defs><style>.cls-1{isolation:isolate;}.cls-2{fill:#fac609;}</style></defs><title>s</title><g id="수정"><g class="cls-1"><path class="cls-2" d="M36.94,11a5.15,5.15,0,0,1-3.12-2.76,5.46,5.46,0,0,1-3.32,3.06l-.79-1.21A4.49,4.49,0,0,0,33,5.82V4.68h1.54V5.82a4.26,4.26,0,0,0,3.2,4Zm4.5,5.45v1.21H32.18V14.13h7.26V13.05H32.15v-1.2H41v3.42H33.71v1.16Zm-2-8.67H36.68V6.51h2.75V4.25H41v7H39.43Z"/><path class="cls-2" d="M55.82,11.09v1.24H50.57v2.53H49V12.33H43.54V11.09Zm-9.24,5.2h7.88v1.26H45V13.64h1.54Zm7.65-6.54H45.1V4.86h9.13ZM52.72,6.09H46.61V8.52h6.11Z"/><path class="cls-2" d="M64.51,11.67a5.13,5.13,0,0,1-3.17-2.86A5.41,5.41,0,0,1,58,11.9l-.78-1.23a4.58,4.58,0,0,0,3.29-4.38V5h1.56V6.42a4.33,4.33,0,0,0,3.18,4.05ZM59,13.08h8.91v4.73H66.38V14.32H59ZM69.85,9H67.93v3.45H66.38V4.28h1.55V7.73h1.92Z"/><path class="cls-2" d="M75.26,8c0,2.31.87,4.65,2.76,5.75l-.9,1.12a6.16,6.16,0,0,1-2.59-3.66,6.68,6.68,0,0,1-2.66,4L70.94,14c1.92-1.2,2.82-3.64,2.82-6.06V7H71.38V5.73H77.5V7H75.26ZM78.5,4.52H80V17.15H78.5V10.28h-2V9h2Zm4.2-.27V17.79H81.23V4.25Z"/></g></g><g id="Group_7825" data-name="Group 7825"><g id="Group_406" data-name="Group 406"><g id="Line_107" data-name="Line 107"><path class="cls-2" d="M6.31,15.61A.66.66,0,0,1,5.66,15V8.85a.65.65,0,1,1,1.3,0V15A.66.66,0,0,1,6.31,15.61Z"/></g><g id="Line_108" data-name="Line 108"><path class="cls-2" d="M11.13,15.61a.66.66,0,0,1-.65-.66V8.85a.65.65,0,0,1,1.3,0V15A.66.66,0,0,1,11.13,15.61Z"/></g><g id="Line_109" data-name="Line 109"><path class="cls-2" d="M8.72,15.61A.66.66,0,0,1,8.07,15V8.85a.65.65,0,0,1,1.3,0V15A.66.66,0,0,1,8.72,15.61Z"/></g></g><g id="Path_186" data-name="Path 186"><path class="cls-2" d="M16.79,4.24H12.93V3.93a1.57,1.57,0,0,0-1.56-1.56H5.86a1.54,1.54,0,0,0-1.09.45,1.52,1.52,0,0,0-.46,1.11v.31H.65a.65.65,0,0,0,0,1.3H2V17.19a2.39,2.39,0,0,0,2.38,2.38H13a2.4,2.4,0,0,0,2.39-2.38V5.54h1.37a.65.65,0,0,0,0-1.3ZM5.61,3.92a.26.26,0,0,1,.26-.25h5.5a.25.25,0,0,1,.18.08.22.22,0,0,1,.08.18v.31h-6Zm8.51,13.26A1.1,1.1,0,0,1,13,18.27H4.42a1.08,1.08,0,0,1-1.08-1.08V5.54H14.12Z"/></g></g></svg>