<svg id="Layer_1" data-name="Layer 1" xmlns="http://www.w3.org/2000/svg" viewBox="0 0 87.06 21.94"><defs><style>.cls-1{isolation:isolate;}.cls-2{fill:#fac609;}</style></defs><title>s</title><g id="응답수집"><g class="cls-1"><path class="cls-2" d="M39.81,11a5.18,5.18,0,0,1-3.12-2.76,5.46,5.46,0,0,1-3.32,3.06l-.79-1.21a4.49,4.49,0,0,0,3.3-4.25V4.68h1.54V5.82a4.26,4.26,0,0,0,3.2,4Zm4.5,5.45v1.21H35.05V14.13h7.26V13.05H35v-1.2h8.82v3.42H36.58v1.16Zm-2-8.67H39.55V6.51H42.3V4.25h1.54v7H42.3Z"/><path class="cls-2" d="M58.69,11.09v1.24H53.44v2.53H51.9V12.33H46.41V11.09Zm-9.24,5.2h7.88v1.26H47.91V13.64h1.54ZM57.1,9.75H48V4.86H57.1ZM55.59,6.09H49.48V8.52h6.11Z"/><path class="cls-2" d="M72.45,10.46V11.7H60.24V10.46H65V8H66.6v2.49ZM71,15.27c0,1.58-1.86,2.54-4.74,2.54s-4.77-1-4.77-2.54,1.84-2.52,4.77-2.52S71,13.71,71,15.27Zm-2-5.79a12.26,12.26,0,0,0,.36-3.33H61.65V4.91H71V6.05a12.68,12.68,0,0,1-.38,3.6Zm.43,5.79c0-.84-1.2-1.33-3.19-1.33s-3.24.49-3.24,1.33,1.23,1.35,3.24,1.35S69.49,16.12,69.49,15.27Z"/><path class="cls-2" d="M86.31,13.17H83.25v4.64H81.67V13.17H78.58v4.64H77V13.17H74V11.9H86.29Zm-11-5.43c0-1.81,2-3,4.82-3s4.8,1.17,4.8,3-2,3-4.8,3S75.31,9.57,75.31,7.74Zm1.59,0c0,1.1,1.28,1.76,3.23,1.76s3.21-.66,3.21-1.76S82.06,6,80.13,6,76.9,6.66,76.9,7.74Z"/></g></g><path class="cls-2" d="M17.15,20.1H2.74a.65.65,0,0,1-.65-.65V5a.65.65,0,0,1,.65-.65h8a.65.65,0,0,1,0,1.3H3.39V18.8H16.5V11.44a.65.65,0,1,1,1.3,0v8A.65.65,0,0,1,17.15,20.1Z"/><path class="cls-2" d="M20.35,2.48V8.86a.65.65,0,1,1-1.3,0V4.05l-8.4,8.39a.62.62,0,0,1-.46.19.65.65,0,0,1-.46-.19.66.66,0,0,1,0-.92l8.4-8.39H13.32a.65.65,0,0,1,0-1.3H19.7A.65.65,0,0,1,20.35,2.48Z"/></svg>