<svg xmlns="http://www.w3.org/2000/svg" viewBox="0 0 300 50"><defs><style>.cls-1{fill:#fac62d;}</style></defs><g id="horizontal-two_color" data-name="horizontal-two color"><path d="M77.11,18.67a8.61,8.61,0,0,0-3.31-3.58,9.48,9.48,0,0,0-5-1.3,8.36,8.36,0,0,0-3.41.7,5.4,5.4,0,0,0-2.29,1.62v-.86a1,1,0,0,0-.27-.76,1,1,0,0,0-.75-.28h-3a1,1,0,0,0-.75.28,1,1,0,0,0-.27.76v23a1,1,0,0,0,.27.76,1,1,0,0,0,.75.28h3a1,1,0,0,0,.75-.28,1,1,0,0,0,.27-.76v-7A5.74,5.74,0,0,0,65.44,33a8.32,8.32,0,0,0,3.38.66,9.58,9.58,0,0,0,5.05-1.32,8.64,8.64,0,0,0,3.24-3.56,11.11,11.11,0,0,0,1.13-5A11.25,11.25,0,0,0,77.11,18.67Zm-5.29,9a5.45,5.45,0,0,1-7.49,0,5.43,5.43,0,0,1-1.41-3.9,5.44,5.44,0,0,1,1.38-3.93,5,5,0,0,1,3.77-1.43,4.93,4.93,0,0,1,3.72,1.5,5.38,5.38,0,0,1,1.43,3.86A5.42,5.42,0,0,1,71.82,27.62Zm28.58-8.81a10.34,10.34,0,0,0-8.87-4.95,10.18,10.18,0,0,0-8.81,4.95,9.72,9.72,0,0,0,0,9.92,10.34,10.34,0,0,0,13.93,3.59,10.33,10.33,0,0,0,3.74-3.63,9.56,9.56,0,0,0,0-9.88ZM96,26.52a5.2,5.2,0,0,1-1.86,1.95,5.13,5.13,0,0,1-5.24,0A4.77,4.77,0,0,1,87,26.53a5.77,5.77,0,0,1-.67-2.78A5.65,5.65,0,0,1,87.06,21a5.11,5.11,0,0,1,4.47-2.63A4.95,4.95,0,0,1,96,21a5.6,5.6,0,0,1,.66,2.71A5.88,5.88,0,0,1,96,26.52Zm27.18,1.17-2.46-1a1.18,1.18,0,0,0-.48-.1,1.16,1.16,0,0,0-.92.52,5.4,5.4,0,0,1-6.84,1.31,4.79,4.79,0,0,1-1.84-1.92,5.6,5.6,0,0,1-.67-2.75A5.31,5.31,0,0,1,111.42,20a4.84,4.84,0,0,1,3.67-1.52,5,5,0,0,1,4.1,2,1.13,1.13,0,0,0,.88.55,1.37,1.37,0,0,0,.48-.1l2.7-1.08a.9.9,0,0,0,.68-.83,1,1,0,0,0-.21-.55,10.09,10.09,0,0,0-8.63-4.56A10.24,10.24,0,0,0,110,15.21a10.06,10.06,0,0,0-3.75,3.63,9.57,9.57,0,0,0,0,9.92A10.27,10.27,0,0,0,110,32.37a10.12,10.12,0,0,0,5.1,1.34A9.27,9.27,0,0,0,123.69,29a1.06,1.06,0,0,0,.17-.52C123.86,28.15,123.63,27.88,123.18,27.69Zm21.72,4.25L138,23.16l6.45-7.57a1.12,1.12,0,0,0,.3-.66.52.52,0,0,0-.22-.44,1,1,0,0,0-.66-.18h-3.83a1.44,1.44,0,0,0-1.22.59L133,22.3V8.13a1.06,1.06,0,0,0-.27-.77,1,1,0,0,0-.75-.27h-3.07a.94.94,0,0,0-1,1v24a1,1,0,0,0,1,1h3.07a1,1,0,0,0,.75-.28,1,1,0,0,0,.27-.76v-3L134.79,27l4.44,5.6a1.53,1.53,0,0,0,1.26.62h3.79a1.12,1.12,0,0,0,.65-.17.54.54,0,0,0,.24-.45A1.21,1.21,0,0,0,144.9,31.94Zm22-11a7.67,7.67,0,0,0-1.2-2.7,9.39,9.39,0,0,0-3.6-3.23,10.2,10.2,0,0,0-4.72-1.12,11,11,0,0,0-5.19,1.22,9.24,9.24,0,0,0-3.67,3.48,9.88,9.88,0,0,0-1.35,5.18,9.4,9.4,0,0,0,1.67,5.81,9.56,9.56,0,0,0,3.86,3.11,11.5,11.5,0,0,0,4.68,1,10.29,10.29,0,0,0,8.09-3.57,1.19,1.19,0,0,0,.27-.65.88.88,0,0,0-.55-.76L163,27.41a1.13,1.13,0,0,0-.61-.2,1.29,1.29,0,0,0-.82.38,5.63,5.63,0,0,1-1.77,1.17,6.12,6.12,0,0,1-2.39.42,6.66,6.66,0,0,1-3.25-.83,3.72,3.72,0,0,1-1.87-2.63h13.48a1.28,1.28,0,0,0,1.06-.48,1.94,1.94,0,0,0,.37-1.21A15.47,15.47,0,0,0,166.89,21Zm-14.51,1.11a3.71,3.71,0,0,1,1.52-2.6,5.47,5.47,0,0,1,3.43-1,4.66,4.66,0,0,1,2.22.51,4.49,4.49,0,0,1,1.54,1.35,3.87,3.87,0,0,1,.68,1.77Zm27.8-3.63a1,1,0,0,0,.75-.28,1,1,0,0,0,.27-.76V14.93a1.05,1.05,0,0,0-.27-.76,1,1,0,0,0-.75-.27h-2.73V9.85a1,1,0,0,0-1-1h-3a1,1,0,0,0-.75.27,1.06,1.06,0,0,0-.28.76V13.9h-1.26a1,1,0,0,0-.75.27,1.05,1.05,0,0,0-.27.76v2.46a1,1,0,0,0,.27.76,1,1,0,0,0,.75.28h1.26V28.66a4.86,4.86,0,0,0,.76,3,3.78,3.78,0,0,0,2,1.38,13.08,13.08,0,0,0,3.59.38q.85,0,1.29,0a1,1,0,0,0,.74-.33,1.13,1.13,0,0,0,.25-.78V30c0-.67-.35-1-1.05-1h-.24a2.06,2.06,0,0,1-1.86-.71,3.92,3.92,0,0,1-.46-2.13v-7.7ZM199.26,24a5.74,5.74,0,0,0-2.34-1.57,26.9,26.9,0,0,0-4-1,13.17,13.17,0,0,1-2.61-.59c-.63-.23-.94-.6-.94-1.11a1.17,1.17,0,0,1,.77-1,3.64,3.64,0,0,1,1.68-.39,9.32,9.32,0,0,1,4.48,1.28,1.33,1.33,0,0,0,.64.17,1,1,0,0,0,.79-.45l1.43-1.94a1.17,1.17,0,0,0,.28-.69.85.85,0,0,0-.48-.76,12.93,12.93,0,0,0-3.29-1.59,12.66,12.66,0,0,0-3.67-.52,10.32,10.32,0,0,0-5.45,1.39,5,5,0,0,0-2.3,4.63,4.65,4.65,0,0,0,1.23,3.42A7,7,0,0,0,187.93,25a20.69,20.69,0,0,0,3.72.9l1.06.14a7.28,7.28,0,0,1,1.84.48,1,1,0,0,1,.72,1,1.42,1.42,0,0,1-.77,1.21,3.59,3.59,0,0,1-1.93.48,9.51,9.51,0,0,1-2.65-.41,13.13,13.13,0,0,1-2.61-1.11,1.14,1.14,0,0,0-.61-.17,1,1,0,0,0-.79.45l-1.46,2a1.2,1.2,0,0,0-.24.69.92.92,0,0,0,.44.76,13.82,13.82,0,0,0,8,2.35,8.93,8.93,0,0,0,5.7-1.61,5.53,5.53,0,0,0,2-4.58A5.19,5.19,0,0,0,199.26,24Zm22.2-9.44a1,1,0,0,0-.75-.27h-3.08a1,1,0,0,0-.75.27,1.05,1.05,0,0,0-.27.76v9a5.31,5.31,0,0,1-.94,3.75A3.3,3.3,0,0,1,213,29.32a3.76,3.76,0,0,1-2.7-.92,3.83,3.83,0,0,1-1-2.89V15.31a1.05,1.05,0,0,0-.27-.76,1,1,0,0,0-.75-.27h-3.11a1,1,0,0,0-.75.27,1.05,1.05,0,0,0-.27.76v10.2q0,8.13,7.37,8.13a7.21,7.21,0,0,0,2.78-.54,6.4,6.4,0,0,0,2.24-1.5v.58a1,1,0,0,0,.27.76,1,1,0,0,0,.75.28h3.08a1,1,0,0,0,.75-.28,1,1,0,0,0,.27-.76V15.31A1.05,1.05,0,0,0,221.46,14.55Zm17.14-.41a.89.89,0,0,0-.75-.24,8.58,8.58,0,0,0-3,.83,6.65,6.65,0,0,0-2.42,2V15.25a1,1,0,0,0-1-1h-3a1,1,0,0,0-1,1V32.18a1,1,0,0,0,1,1h3a1,1,0,0,0,1-1V24.82a5.66,5.66,0,0,1,1.23-3.94,5.75,5.75,0,0,1,2-1.43,6.4,6.4,0,0,1,2.18-.54c.68-.07,1-.41,1-1V14.93A1.09,1.09,0,0,0,238.6,14.14Zm18.58.14h-3.76a1.34,1.34,0,0,0-1.33.76L247.57,25l-2.37-2.73a1.22,1.22,0,0,0-.85-.2h-3.73c-.64,0-1,.25-1,.73a1.09,1.09,0,0,0,.15.52L247,32.67c.22.39.48.59.78.59s.54-.2.73-.59L258,15.52a1.16,1.16,0,0,0,.14-.52Q258.14,14.28,257.18,14.28ZM278.86,21a7.82,7.82,0,0,0-1.19-2.7,9.54,9.54,0,0,0-3.6-3.23,10.27,10.27,0,0,0-4.73-1.12,11,11,0,0,0-5.19,1.22,9.24,9.24,0,0,0-3.67,3.48,9.88,9.88,0,0,0-1.35,5.18,9.34,9.34,0,0,0,1.68,5.81,9.47,9.47,0,0,0,3.85,3.11,11.57,11.57,0,0,0,4.68,1,10.29,10.29,0,0,0,8.09-3.57,1.19,1.19,0,0,0,.27-.65.88.88,0,0,0-.54-.76l-2.22-1.32a1.16,1.16,0,0,0-.62-.2,1.29,1.29,0,0,0-.82.38,5.63,5.63,0,0,1-1.77,1.17,6.12,6.12,0,0,1-2.39.42,6.62,6.62,0,0,1-3.24-.83,3.73,3.73,0,0,1-1.88-2.63H277.7a1.26,1.26,0,0,0,1.06-.48,1.94,1.94,0,0,0,.37-1.21A15.47,15.47,0,0,0,278.86,21Zm-14.5,1.11a3.7,3.7,0,0,1,1.51-2.6,5.5,5.5,0,0,1,3.44-1,4.59,4.59,0,0,1,2.21.51,4.49,4.49,0,0,1,1.54,1.35,3.76,3.76,0,0,1,.68,1.77Zm35.4-7.57a1,1,0,0,0-.68-.21h-3.72a1.13,1.13,0,0,0-1.2.83L290.1,26.38l-4.44-11.31a1.14,1.14,0,0,0-1.16-.79h-3.75a.91.91,0,0,0-.63.19.61.61,0,0,0-.22.5,1.49,1.49,0,0,0,.1.52l7.51,17-2.73,6.6a1.46,1.46,0,0,0-.11.49c0,.48.3.72.89.72H289a1.14,1.14,0,0,0,1.16-.79l9.7-24.06A1.69,1.69,0,0,0,300,15,.68.68,0,0,0,299.76,14.49Z"/><path class="cls-1" d="M33.8,21.33,23.4,32.43a2.3,2.3,0,0,1-3.19.15L15.08,28a2.36,2.36,0,0,1-.21-3.3,2.28,2.28,0,0,1,3.25-.21l3.46,3.07,8.88-9.46A2.28,2.28,0,0,1,33.72,18,2.35,2.35,0,0,1,33.8,21.33Z"/><path class="cls-1" d="M45.39,2.33V37.48a2.33,2.33,0,0,1-1.29,2.09L23.71,49.76a2.28,2.28,0,0,1-1,.24,2.34,2.34,0,0,1-1-.24L1.28,39.57A2.34,2.34,0,0,1,0,37.48V13.19a2.32,2.32,0,0,1,2.3-2.34H20.87a2.34,2.34,0,0,1,0,4.67H4.61V36l18.08,9,18.09-9V4.67H2.3A2.32,2.32,0,0,1,0,2.33,2.31,2.31,0,0,1,2.3,0H43.08A2.32,2.32,0,0,1,45.39,2.33Z"/></g></svg>