<svg id="Layer_1" data-name="Layer 1" xmlns="http://www.w3.org/2000/svg" viewBox="0 0 18.25 18"><defs><style>.cls-1{fill:#fac612;}</style></defs><g id="Group_8371" data-name="Group 8371"><path id="Path_4342" data-name="Path 4342" class="cls-1" d="M16,9a5.43,5.43,0,0,0-.05-.9L17.79,6.7,15.8,3l-2.15.74a7.44,7.44,0,0,0-2.06-1.24L11.22.29H7L6.69,2.52A6.7,6.7,0,0,0,4.81,3.58l-2.1-.84L.57,6.34,2.31,7.79A6.84,6.84,0,0,0,2.2,9a5.82,5.82,0,0,0,.07.93L.47,11.29l2,3.69,2.16-.75a6.66,6.66,0,0,0,2.07,1.22L7,17.71h4.18l.36-2.26a6.77,6.77,0,0,0,1.83-1l2.12.84,2.13-3.6L15.91,10.2A5,5,0,0,0,16,9Zm-4.24,1.44-.17.28a3,3,0,0,1-4.18.82h0a3.24,3.24,0,0,1-1-1.07A3.17,3.17,0,0,1,6.11,9a2.71,2.71,0,0,1,.3-1.31l.29-.48a2.94,2.94,0,0,1,2-1.2,3.14,3.14,0,0,1,.75,0,3,3,0,0,1,2.13,1.3l.28.52v0A2.93,2.93,0,0,1,12.14,9,3,3,0,0,1,11.79,10.42Z"/></g></svg>