<svg id="Layer_1" data-name="Layer 1" xmlns="http://www.w3.org/2000/svg" viewBox="0 0 51.46 63.02"><defs><style>.cls-1{fill:none;stroke:#3b3939;stroke-linecap:round;stroke-linejoin:round;stroke-width:2.5px;}.cls-2{fill:#3b3939;}</style></defs><title>ppt</title><polygon class="cls-1" points="50.21 20.42 50.21 61.77 1.25 61.77 1.25 1.25 31.04 1.25 50.21 20.42"/><path class="cls-2" d="M22.38,51.74H18.72l-2.86-4.63L13,51.74H9.5l4.42-6.85L9.76,38.42h3.53L16,42.9l2.57-4.48h3.53l-4.18,6.7Z"/><path class="cls-2" d="M23.68,51.74V38.42h3.17V49.15h5.28v2.59Z"/><path class="cls-2" d="M42.32,47.88a3.75,3.75,0,0,1-2.24,3.52,6.66,6.66,0,0,1-2.82.53,9.63,9.63,0,0,1-2.12-.21,8.31,8.31,0,0,1-1.8-.61v-2.9A14.32,14.32,0,0,0,35.4,49a7.06,7.06,0,0,0,2,.31A2.11,2.11,0,0,0,38.76,49a1.08,1.08,0,0,0,.4-.88,1.17,1.17,0,0,0-.64-1,19.05,19.05,0,0,0-1.86-1,15.1,15.1,0,0,1-1.52-.85A3.84,3.84,0,0,1,33.94,44a3.57,3.57,0,0,1-.47-2,3.38,3.38,0,0,1,1.29-2.85,5.52,5.52,0,0,1,3.45-1,8.62,8.62,0,0,1,2.15.26,13.07,13.07,0,0,1,1.94.67l-1,2.48a12.7,12.7,0,0,0-1.67-.6,5.79,5.79,0,0,0-1.5-.22,1.74,1.74,0,0,0-1.14.32,1,1,0,0,0-.38.8,1,1,0,0,0,.27.68,2.75,2.75,0,0,0,.82.59c.37.2.86.44,1.47.73a9.28,9.28,0,0,1,1.7,1,3.42,3.42,0,0,1,1.46,3Z"/><polyline class="cls-1" points="50.21 20.42 31.04 20.42 31.04 1.25"/><polyline class="cls-1" points="41.96 20.38 9.5 20.38 9.5 12.91 31.04 12.91"/><polyline class="cls-1" points="41.96 20.38 41.96 27.85 9.5 27.85 9.5 20.38"/><line class="cls-1" x1="20.45" y1="13.45" x2="20.45" y2="27.85"/><line class="cls-1" x1="31.04" y1="20.42" x2="31.04" y2="27.85"/></svg>