<svg id="Layer_1" data-name="Layer 1" xmlns="http://www.w3.org/2000/svg" viewBox="0 0 25.83 30"><defs><style>.cls-1,.cls-2{fill:none;stroke:#000;stroke-linecap:round;stroke-linejoin:round;}.cls-2{stroke-width:0.75px;}</style></defs><title>payment_FAQ</title><path class="cls-1" d="M13.05,18.44V3.6a1.68,1.68,0,0,1,1.68-1.67H27.35A1.67,1.67,0,0,1,29,3.6V22.52a1.67,1.67,0,0,1-1.67,1.67H19.14" transform="translate(-3.69 -1.43)"/><line class="cls-1" x1="14.79" y1="0.61" x2="14.79" y2="11.55"/><path class="cls-1" d="M4.19,28.54v-10A8.78,8.78,0,0,1,13,9.75" transform="translate(-3.69 -1.43)"/><path class="cls-1" d="M16.62,28.54" transform="translate(-3.69 -1.43)"/><path class="cls-1" d="M16.68,16l2.06-3.38a2.72,2.72,0,0,1,3.7-1h0a2.71,2.71,0,0,1,1,3.71L18.71,23.8l0,.29a6.84,6.84,0,0,1-6.84,6.84" transform="translate(-3.69 -1.43)"/><path class="cls-1" d="M11.91,19a6.38,6.38,0,0,0,3.34-1.39,6.06,6.06,0,0,0,1.53-1.86" transform="translate(-3.69 -1.43)"/><line class="cls-1" x1="16.97" y1="0.61" x2="16.97" y2="9.73"/><path class="cls-2" d="M22.05,15a1.23,1.23,0,1,0-2-1.42Z" transform="translate(-3.69 -1.43)"/><rect class="cls-2" x="20.36" y="2.62" width="3.1" height="4.64" rx="0.98"/></svg>