<svg id="Layer_1" data-name="Layer 1" xmlns="http://www.w3.org/2000/svg" viewBox="0 0 32 32"><defs><style>.cls-1{fill:#fac609;}.cls-2,.cls-3,.cls-4{fill:none;stroke-linecap:round;stroke-linejoin:round;}.cls-2{stroke:#fff;stroke-width:1.5px;}.cls-3,.cls-4{stroke:#f1f1f2;}.cls-4{stroke-dasharray:2.04 2.55;}</style></defs><rect class="cls-1" x="1.5" y="1.5" width="29" height="29" rx="2.5"/><path class="cls-2" d="M6.83,21.56c3.05,0,3.05-10,6.11-10s3.05,10,6.11,10,3.06-10,6.11-10"/><line class="cls-3" x1="6.83" y1="16.56" x2="7.83" y2="16.56"/><line class="cls-4" x1="10.38" y1="16.56" x2="22.89" y2="16.56"/><line class="cls-3" x1="24.16" y1="16.56" x2="25.16" y2="16.56"/><path class="cls-1" d="M28,0H4A4,4,0,0,0,0,4V28a4,4,0,0,0,4,4H28a4,4,0,0,0,4-4V4A4,4,0,0,0,28,0Zm2.5,28A2.5,2.5,0,0,1,28,30.5H4A2.5,2.5,0,0,1,1.5,28V4A2.5,2.5,0,0,1,4,1.5H28A2.5,2.5,0,0,1,30.5,4Z"/><path id="Rectangle_1613" data-name="Rectangle 1613" class="cls-2" d="M25.17,25.17H6.83V6.83"/></svg>