<svg id="Layer_1" data-name="Layer 1" xmlns="http://www.w3.org/2000/svg" xmlns:xlink="http://www.w3.org/1999/xlink" viewBox="0 0 40 40"><defs><style>.cls-1,.cls-3,.cls-4{fill:none;stroke-linecap:round;stroke-width:2px;}.cls-1{stroke:#707070;}.cls-1,.cls-3{stroke-linejoin:round;}.cls-2{clip-path:url(#clip-path);}.cls-3,.cls-4{stroke:#707071;}.cls-4{stroke-miterlimit:10;}</style><clipPath id="clip-path"><path class="cls-1" d="M28,9H31.5V31.05a.94.94,0,0,1-.92,1H9.42a.94.94,0,0,1-.92-1V9H12"/></clipPath></defs><g class="cls-2"><g id="Group_312" data-name="Group 312"><g id="Group_310" data-name="Group 310"><path id="Path_150" data-name="Path 150" class="cls-3" d="M36.47,23.17v9.35H8.33V27.7l6.58-5.08,6.93,4.53"/></g><g id="Group_311" data-name="Group 311"><path id="Path_151" data-name="Path 151" class="cls-3" d="M36.47,23.17l-8.12-5.44L19.8,25.17"/></g></g></g><path class="cls-1" d="M28,9H31.5V31.05a.94.94,0,0,1-.92,1H9.42a.94.94,0,0,1-.92-1V9H12"/><line class="cls-4" x1="20" y1="19.1" x2="20" y2="8.75"/><polyline class="cls-1" points="15.77 12.92 17.88 10.84 20 8.75 22.12 10.84 24.23 12.92"/></svg>