<svg xmlns="http://www.w3.org/2000/svg" viewBox="0 0 19.59 19.59"><defs><style>.cls-1,.cls-2{fill:none;}.cls-2{stroke:#ebc430;stroke-width:2px;}.cls-3{fill:#ebc430;}</style></defs><title>pocketsurvey_dashboard_question</title><g id="Character"><g id="Group_5220" data-name="Group 5220"><g id="Ellipse_44" data-name="Ellipse 44"><circle class="cls-1" cx="9.8" cy="9.8" r="9.8"/><circle class="cls-2" cx="9.8" cy="9.8" r="8.8"/></g><path id="Path_147" data-name="Path 147" class="cls-3" d="M8.33,11.43A2.87,2.87,0,0,1,9.79,8.76c.47-.33.87-.62.87-1.2a1,1,0,0,0-.92-1H9.67a1,1,0,0,0-1,1,.22.22,0,0,0,0,.08H6.15c0-2.11,1.6-3.24,3.54-3.24A3.22,3.22,0,0,1,13.2,7.26a2.62,2.62,0,0,1,0,.28A2.81,2.81,0,0,1,11.8,10c-.53.41-1,.77-1,1.45v.27H8.33Zm-.07,1h2.56v2.45H8.26Z"/></g></g></svg>