<svg id="Layer_1" data-name="Layer 1" xmlns="http://www.w3.org/2000/svg" viewBox="0 0 32 32"><defs><style>.cls-1{fill:#fac609;}.cls-2{fill:none;stroke:#fff;stroke-linecap:round;stroke-linejoin:round;stroke-width:1.5px;}</style></defs><path class="cls-1" d="M28,0H4A4,4,0,0,0,0,4V28a4,4,0,0,0,4,4H28a4,4,0,0,0,4-4V4A4,4,0,0,0,28,0Zm2.5,28A2.5,2.5,0,0,1,28,30.5H4A2.5,2.5,0,0,1,1.5,28V4A2.5,2.5,0,0,1,4,1.5H28A2.5,2.5,0,0,1,30.5,4Z"/><rect class="cls-1" x="1.5" y="1.5" width="29" height="29" rx="2.5"/><circle class="cls-2" cx="9.73" cy="7.85" r="2.26"/><circle class="cls-2" cx="9.73" cy="16" r="2.26"/><circle class="cls-2" cx="9.73" cy="24.15" r="2.26"/><line class="cls-2" x1="11.99" y1="7.85" x2="24.53" y2="7.84"/><line class="cls-2" x1="11.99" y1="16" x2="24.53" y2="16"/><line class="cls-2" x1="11.99" y1="24.16" x2="24.54" y2="24.15"/></svg>