<svg id="Layer_1" data-name="Layer 1" xmlns="http://www.w3.org/2000/svg" viewBox="0 0 32 32"><defs><style>.cls-1{fill:#fac609;}.cls-2{fill:none;stroke:#fff;stroke-linecap:round;stroke-linejoin:round;stroke-width:1.5px;}</style></defs><g id="Rectangle_1625" data-name="Rectangle 1625"><path class="cls-1" d="M28,0H4A4,4,0,0,0,0,4V28a4,4,0,0,0,4,4H28a4,4,0,0,0,4-4V4A4,4,0,0,0,28,0Zm2.5,28A2.5,2.5,0,0,1,28,30.5H4A2.5,2.5,0,0,1,1.5,28V4A2.5,2.5,0,0,1,4,1.5H28A2.5,2.5,0,0,1,30.5,4Z"/><rect class="cls-1" x="1.5" y="1.5" width="29" height="29" rx="2.5"/></g><line class="cls-2" x1="7.22" y1="5.43" x2="7.22" y2="17.83"/><path class="cls-2" d="M24.78,14.05c-7,0-6.14,11.81-17.56,11.81"/><path class="cls-2" d="M7.22,22.31c10.37,0,8.21-11.81,17.56-11.81"/><path class="cls-2" d="M24.78,15.18V9.38"/><path class="cls-2" d="M24.78,24.32v-5.8"/><path class="cls-2" d="M17.65,20c2.15,1.6,3.76,3.19,7.13,3.19V19.81a8,8,0,0,1-5.38-2.06"/><path class="cls-2" d="M17,15.18c-2.9-3.74-5.13-8.39-9.8-8.39v10a17.05,17.05,0,0,1,7.68,1.51"/><path class="cls-2" d="M7.22,27v-5.8"/></svg>