<svg id="Layer_1" data-name="Layer 1" xmlns="http://www.w3.org/2000/svg" xmlns:xlink="http://www.w3.org/1999/xlink" viewBox="0 0 33 33"><defs><style>.cls-1{fill:none;}.cls-2{clip-path:url(#clip-path);}.cls-3{fill:#fac609;}.cls-4{fill:#fff;}</style><clipPath id="clip-path"><rect class="cls-1" width="33" height="33"/></clipPath></defs><g class="cls-2"><rect id="Rectangle_1625" data-name="Rectangle 1625" class="cls-3" width="33" height="33" rx="4.13"/></g><path class="cls-4" d="M11.9,17.17A4.12,4.12,0,0,1,9.4,15a4.33,4.33,0,0,1-2.64,2.39L6,16.13a3.56,3.56,0,0,0,2.61-3.34H6.39V11.53h5.93v1.26H10.18a3.4,3.4,0,0,0,2.49,3.15Zm-4,.64h7.35v4.08H7.9Zm1.56,2.84H13.7V19H9.46ZM15.25,11v6.38H13.67V14.81H12V13.53h1.67V11Z"/><path class="cls-4" d="M27.05,18.26H22.81V22H21.23V18.26H17.07V17h10Zm-1-2.1a5.37,5.37,0,0,1-4-2.37,5.41,5.41,0,0,1-4,2.37l-.6-1.27c2.52-.34,3.78-1.77,3.78-3.07V11.3h1.69v.52c0,1.29,1.27,2.73,3.78,3.07Z"/></svg>