<svg id="Layer_1" data-name="Layer 1" xmlns="http://www.w3.org/2000/svg" viewBox="0 0 24 24"><defs><style>.cls-1{fill:#818282;}</style></defs><g id="Group_8371" data-name="Group 8371"><path id="Path_4342" data-name="Path 4342" class="cls-1" d="M20.68,12a6.24,6.24,0,0,0-.07-1.14L22.94,9.1,20.42,4.42l-2.71.94a9.6,9.6,0,0,0-2.6-1.57L14.64,1H9.31L8.92,3.82A8.45,8.45,0,0,0,6.54,5.15L3.89,4.09,1.19,8.64l2.2,1.83A8.8,8.8,0,0,0,3.25,12a7.59,7.59,0,0,0,.09,1.17L1.06,14.89l2.53,4.66,2.73-.94a8.69,8.69,0,0,0,2.61,1.54L9.31,23h5.28L15,20.15a8.54,8.54,0,0,0,2.31-1.27L20,19.94l2.69-4.54-2.16-1.88A6.46,6.46,0,0,0,20.68,12Zm-5.36,1.82-.21.35a3.8,3.8,0,0,1-5.26,1.05h0a4.2,4.2,0,0,1-1.27-1.35A4,4,0,0,1,8.19,12a3.38,3.38,0,0,1,.37-1.65l.37-.61a3.75,3.75,0,0,1,2.53-1.52,4.92,4.92,0,0,1,.94,0,3.75,3.75,0,0,1,2.69,1.65l.36.65h0A3.65,3.65,0,0,1,15.8,12a3.82,3.82,0,0,1-.44,1.79Z"/></g></svg>