<svg id="Layer_1" data-name="Layer 1" xmlns="http://www.w3.org/2000/svg" viewBox="0 0 24 24"><defs><style>.cls-1{fill:#818282;}</style></defs><path class="cls-1" d="M11,22.43a.52.52,0,0,1-.51.57H1.57a.52.52,0,0,1-.51-.57,5,5,0,0,1,3.67-4.26,2.76,2.76,0,1,1,2.61,0,4.9,4.9,0,0,1,2,1.11A5,5,0,0,1,11,22.43Z"/><path class="cls-1" d="M23,22.43a.52.52,0,0,1-.51.57H13.56a.52.52,0,0,1-.51-.57,5,5,0,0,1,3.67-4.26,2.76,2.76,0,1,1,2.61,0,4.9,4.9,0,0,1,2,1.11A5,5,0,0,1,23,22.43Z"/><path class="cls-1" d="M17,10.44a.51.51,0,0,1-.5.57H7.54A.52.52,0,0,1,7,10.44,5,5,0,0,1,10.7,6.18a2.75,2.75,0,1,1,2.61,0,4.87,4.87,0,0,1,2,1.11A4.94,4.94,0,0,1,17,10.44Z"/></svg>