<svg id="Layer_1" data-name="Layer 1" xmlns="http://www.w3.org/2000/svg" viewBox="0 0 84.34 21.98"><defs><style>.cls-1{isolation:isolate;}.cls-2{fill:#fac609;}</style></defs><title>s</title><g id="설문복제"><g class="cls-1"><path class="cls-2" d="M37.09,11A5.15,5.15,0,0,1,34,8.22a5.46,5.46,0,0,1-3.32,3.06l-.79-1.21a4.49,4.49,0,0,0,3.3-4.25V4.68H34.7V5.82a4.26,4.26,0,0,0,3.2,4Zm4.5,5.45v1.21H32.33V14.13h7.26V13.05H32.3v-1.2h8.82v3.42H33.86v1.16Zm-2-8.67H36.83V6.51h2.75V4.25h1.54v7H39.58Z"/><path class="cls-2" d="M56,11.09v1.24H50.72v2.53H49.18V12.33H43.69V11.09Zm-9.24,5.2h7.88v1.26H45.19V13.64h1.54Zm7.65-6.54H45.25V4.86h9.13ZM52.87,6.09H46.76V8.52h6.11Z"/><path class="cls-2" d="M69.76,11.11v1.27H57.47V11.11h5.36V9.72H59.08V4.59h1.53V6h6V4.59h1.53V9.72H64.39v1.39ZM58.85,13.52h9.39v4.3H66.7V14.76H58.85Zm1.76-5h6V7.16h-6Z"/><path class="cls-2" d="M75.41,8c0,2.31.87,4.65,2.76,5.75l-.9,1.12a6.16,6.16,0,0,1-2.59-3.66,6.68,6.68,0,0,1-2.66,4L71.09,14C73,12.84,73.91,10.4,73.91,8V7H71.53V5.73h6.12V7H75.41Zm3.24-3.46h1.46V17.15H78.65V10.28h-2V9h2Zm4.2-.27V17.79H81.38V4.25Z"/></g></g><g id="Group_7798" data-name="Group 7798"><g id="Group_234" data-name="Group 234"><g id="Group_233" data-name="Group 233"><g id="Rectangle_267" data-name="Rectangle 267"><path class="cls-2" d="M13.94,2.34V3.82h0V2.34Z"/><path class="cls-2" d="M18,3.82h-2.8V1.69c0-.05,0-.09,0-.13a.56.56,0,0,0,0-.12.6.6,0,0,0-.14-.21A.62.62,0,0,0,14.6,1H.65A.65.65,0,0,0,0,1.69V18.12a.66.66,0,0,0,.65.66h2.8v2.13a.65.65,0,0,0,.65.65H18a.65.65,0,0,0,.65-.65V4.47A.65.65,0,0,0,18,3.82ZM12.11,2.34H14V3.82H12.11ZM1.3,17.47V2.34h9.51V4.47a.65.65,0,0,0,.65.65h2.48V17.47Zm16.09,2.79H4.75V18.78h9.84a.66.66,0,0,0,.65-.66v-13h2.15Z"/></g><g id="Rectangle_268" data-name="Rectangle 268"><path class="cls-2" d="M15.23,1.56s0,.08,0,.13V3.82h0V1.69A.27.27,0,0,0,15.23,1.56Z"/></g></g></g><g id="Line_35" data-name="Line 35"><path class="cls-2" d="M7.62,12.22A.65.65,0,0,1,7,11.57V7.4a.65.65,0,0,1,1.3,0v4.17A.65.65,0,0,1,7.62,12.22Z"/></g><g id="Line_36" data-name="Line 36"><path class="cls-2" d="M10,10.13H5.27a.65.65,0,0,1,0-1.3H10a.65.65,0,1,1,0,1.3Z"/></g></g></svg>