<svg id="Layer_1" data-name="Layer 1" xmlns="http://www.w3.org/2000/svg" viewBox="0 0 88.75 22.6"><defs><style>.cls-1{isolation:isolate;}.cls-2{fill:#fac609;}</style></defs><title>s</title><g id="설문수정"><g class="cls-1"><path class="cls-2" d="M41.5,11a5.15,5.15,0,0,1-3.12-2.76,5.46,5.46,0,0,1-3.32,3.06l-.79-1.21a4.49,4.49,0,0,0,3.3-4.25V4.68h1.54V5.82a4.26,4.26,0,0,0,3.2,4ZM46,16.43v1.21H36.74V14.13H44V13.05H36.71v-1.2h8.82v3.42H38.27v1.16ZM44,7.76H41.24V6.51H44V4.25h1.54v7H44Z"/><path class="cls-2" d="M60.38,11.09v1.24H55.13v2.53H53.59V12.33H48.1V11.09Zm-9.24,5.2H59v1.26H49.6V13.64h1.54Zm7.65-6.54H49.66V4.86h9.13ZM57.28,6.09H51.17V8.52h6.11Z"/><path class="cls-2" d="M74.15,13H68.77v4.79H67.22V13H61.91V11.78H74.15ZM73,10.5a6.84,6.84,0,0,1-5-3.06,6.81,6.81,0,0,1-5,3.06l-.6-1.24c2.76-.4,4.77-2.06,4.77-3.84V4.7h1.64v.72c0,1.75,2,3.44,4.77,3.84Z"/><path class="cls-2" d="M83,11.9A5.3,5.3,0,0,1,79.85,9a5.61,5.61,0,0,1-3.34,3.26L75.71,11A4.76,4.76,0,0,0,79,6.62v-.2H76.16V5.18h7.25V6.42H80.59V6.6a4.43,4.43,0,0,0,3.18,4.08Zm4,3.36c0,1.61-1.74,2.56-4.56,2.56s-4.57-.95-4.57-2.56,1.74-2.57,4.57-2.57S87,13.65,87,15.26Zm-1.54,0c0-.89-1.11-1.37-3-1.37s-3,.48-3,1.37,1.1,1.36,3,1.36S85.45,16.14,85.45,15.26Zm-.06-7.59V4.26h1.54v8.07H85.39V8.93H83V7.67Z"/></g></g><g id="Group_7807" data-name="Group 7807"><g id="Group_7799" data-name="Group 7799"><g id="Rectangle_1755" data-name="Rectangle 1755"><path class="cls-2" d="M22.31,3.06,19.94.7a2,2,0,0,0-2.71,0l-.93.93L7.21,10.72A.67.67,0,0,0,7,11.1H7l-.92,5.07a.65.65,0,0,0,.18.58.68.68,0,0,0,.46.19h.12L11.9,16h0a.67.67,0,0,0,.38-.22l9.09-9.09.93-.93a1.9,1.9,0,0,0,.56-1.36A1.94,1.94,0,0,0,22.31,3.06ZM7.52,15.49l.53-2.93,2.4,2.4Zm4.27-1L8.55,11.22,16.76,3,20,6.25Zm9.6-9.6-.47.47L17.68,2.09l.47-.47a.61.61,0,0,1,.44-.17.57.57,0,0,1,.43.17L21.39,4a.67.67,0,0,1,.18.44A.63.63,0,0,1,21.39,4.86Z"/></g></g><g id="Group_7800" data-name="Group 7800"><g id="Path_4200" data-name="Path 4200"><path class="cls-2" d="M18,22.46H.65A.65.65,0,0,1,0,21.81V4.51a.65.65,0,0,1,.65-.65H9.56a.65.65,0,1,1,0,1.3H1.3v16h16V12.94a.65.65,0,1,1,1.3,0v8.87A.65.65,0,0,1,18,22.46Z"/></g></g></g></svg>