<svg id="Layer_1" data-name="Layer 1" xmlns="http://www.w3.org/2000/svg" viewBox="0 0 12.01 12.83"><defs><style>.cls-1{fill:none;stroke:#231f20;stroke-linecap:round;stroke-linejoin:round;}</style></defs><title>pocketsurvey_background</title><path class="cls-1" d="M1.51,1.89h9a0,0,0,0,1,0,0v8.17a2.27,2.27,0,0,1-2.27,2.27H3.79a2.27,2.27,0,0,1-2.27-2.27V1.89A0,0,0,0,1,1.51,1.89Z"/><line class="cls-1" y1="1.89" x2="12.01" y2="1.89"/><line class="cls-1" x1="4.21" y1="4.84" x2="4.21" y2="9.38"/><line class="cls-1" x1="7.8" y1="4.84" x2="7.8" y2="9.38"/><line class="cls-1" x1="6.01" y1="4.84" x2="6.01" y2="9.38"/><path class="cls-1" d="M4.39.5H7.46A1.19,1.19,0,0,1,8.65,1.69v.2a0,0,0,0,1,0,0H3.21a0,0,0,0,1,0,0v-.2A1.19,1.19,0,0,1,4.39.5Z"/></svg>