<svg xmlns="http://www.w3.org/2000/svg" viewBox="0 0 32 32"><g id="_100Chartline" data-name="100Chartline"><path d="M11.85,21.74l6.36-11.45h1.9L13.76,21.73Zm10.42-6.06a2.56,2.56,0,0,0-2.07-.91,2.4,2.4,0,0,0-2.06.92,4.36,4.36,0,0,0-.67,2.61,4.27,4.27,0,0,0,.72,2.64,2.37,2.37,0,0,0,2,.94A2.41,2.41,0,0,0,22.3,21,4.42,4.42,0,0,0,23,18.3,4.23,4.23,0,0,0,22.27,15.68Zm-2,4.6a.66.66,0,0,1-.63-.53,5.59,5.59,0,0,1-.15-1.43,5.28,5.28,0,0,1,.15-1.4c.16-.47.43-.57.63-.57.52,0,.77.64.77,2C21,19.16,20.93,20.28,20.24,20.28ZM13.81,11a2.58,2.58,0,0,0-2.08-.91A2.37,2.37,0,0,0,9.68,11,4.29,4.29,0,0,0,9,13.65a4.27,4.27,0,0,0,.73,2.64,2.35,2.35,0,0,0,2,.94,2.44,2.44,0,0,0,2.11-.93,4.4,4.4,0,0,0,.69-2.65A4.25,4.25,0,0,0,13.81,11Zm-2,4.6a.64.64,0,0,1-.62-.53A5.12,5.12,0,0,1,11,13.67a4.85,4.85,0,0,1,.16-1.4c.15-.47.42-.57.62-.57.52,0,.77.64.77,2C12.54,14.51,12.46,15.63,11.77,15.63ZM25,28H7a3,3,0,0,1-3-3V7A3,3,0,0,1,7,4H25a3,3,0,0,1,3,3V25A3,3,0,0,1,25,28ZM7,6A1,1,0,0,0,6,7V25a1,1,0,0,0,1,1H25a1,1,0,0,0,1-1V7a1,1,0,0,0-1-1Z"/></g></svg>