<svg width="14" height="10" viewBox="0 0 14 10" fill="none" xmlns="http://www.w3.org/2000/svg">
<path d="M0.132685 4.88266C0.125883 4.91878 0.125883 4.9559 0.132685 4.99202C0.169898 5.08513 0.224338 5.17001 0.293012 5.242L4.11032 9.14784C4.25337 9.29333 4.44687 9.375 4.64856 9.375C4.85026 9.375 5.04376 9.29333 5.1868 9.14784C5.25836 9.07522 5.31516 8.98882 5.35392 8.89363C5.39268 8.79844 5.41263 8.69633 5.41263 8.59321C5.41263 8.49009 5.39268 8.38798 5.35392 8.29279C5.31516 8.1976 5.25836 8.1112 5.1868 8.03858L2.69792 5.46854L13.1115 5.46854C13.314 5.46854 13.5082 5.38624 13.6514 5.23974C13.7946 5.09324 13.875 4.89455 13.875 4.68737C13.875 4.48019 13.7946 4.2815 13.6514 4.135C13.5082 3.9885 13.314 3.9062 13.1115 3.9062L2.69792 3.9062L5.20971 1.33615C5.35347 1.19009 5.43464 0.991579 5.43535 0.784286C5.43607 0.576991 5.35628 0.377897 5.21353 0.230799C5.07077 0.0837023 4.87676 0.000651509 4.67417 -8.09312e-05C4.47157 -0.000813371 4.27699 0.0808326 4.13323 0.226894L0.315917 4.13274C0.247242 4.20472 0.192803 4.2896 0.15559 4.38271C0.148788 4.41883 0.148788 4.45595 0.15559 4.49207C0.114805 4.61893 0.114805 4.75581 0.155589 4.88266L0.132685 4.88266Z" />
</svg>
