<svg xmlns="http://www.w3.org/2000/svg" viewBox="0 0 32 32"><g id="branch"><path d="M29.77,21.29a1,1,0,0,0-1.41,0L27,22.66V20A11,11,0,0,0,20,9.74a4,4,0,0,0-8,0A11,11,0,0,0,5.18,18H3a1,1,0,0,0-1,1v6a1,1,0,0,0,1,1H9a1,1,0,0,0,1-1V19a1,1,0,0,0-1-1H7.22a9,9,0,0,1,5.19-6.26,4,4,0,0,0,7.18,0A8.93,8.93,0,0,1,25,20v2.52l-1.23-1.23a1,1,0,0,0-1.41,0,1,1,0,0,0,0,1.42l3,3a1,1,0,0,0,.71.29,1,1,0,0,0,.7-.29l3-3A1,1,0,0,0,29.77,21.29ZM8,20v4H4V20Zm10-9.7a2,2,0,0,1-4,0c0-.1,0-.2,0-.3a2,2,0,0,1,4,0C18,10.1,18,10.2,18,10.3Z"/></g></svg>