<svg width="14" height="14" viewBox="0 0 14 14" fill="none" xmlns="http://www.w3.org/2000/svg">
<circle cx="7" cy="7" r="7" fill="#f2ab28"/>
<path d="M7.17383 10.4976C8.77051 10.4976 9.91797 9.62842 9.9082 8.41748C9.91797 7.53369 9.34668 6.90381 8.30664 6.77686V6.71826C9.09766 6.57666 9.64941 6.01514 9.64453 5.22412C9.64941 4.10596 8.66797 3.23193 7.19336 3.23193C5.74316 3.23193 4.64941 4.07666 4.625 5.29248H6.03125C6.05566 4.75049 6.56836 4.39893 7.19336 4.40381C7.81836 4.39893 8.2334 4.77002 8.22852 5.31201C8.2334 5.86865 7.74512 6.24951 7.04688 6.24951H6.39258V7.3335H7.04688C7.87695 7.33838 8.38965 7.74365 8.38477 8.31982C8.38965 8.89111 7.88672 9.28174 7.18359 9.28662C6.5 9.28174 5.9873 8.93506 5.96289 8.40771H4.47852C4.50781 9.64307 5.62109 10.4976 7.17383 10.4976Z" fill="white"/>
</svg>
