<svg xmlns="http://www.w3.org/2000/svg" viewBox="0 0 39.8 12.61"><g id="cloud"><path d="M37.8,9.57a1,1,0,0,1-2,0A5.55,5.55,0,0,0,24.91,8s0,0,0,.05a.44.44,0,0,1-.06.16l-.07.14a.69.69,0,0,1-.11.13.87.87,0,0,1-.11.09s0,0,0,0l-.11.06a.58.58,0,0,1-.25.09.64.64,0,0,1-.2,0,1.33,1.33,0,0,1-.28,0l-.23-.1a.61.61,0,0,1-.16-.12l0,0a.13.13,0,0,1-.06-.07.48.48,0,0,1-.12-.16l0-.05A2.6,2.6,0,0,0,20.82,7h-.05a2.6,2.6,0,0,0-1.2.3,1,1,0,0,1-1.42-.55,4.09,4.09,0,0,0-7.89.67,1,1,0,0,1-1.75.48A2.55,2.55,0,0,0,6.58,7,2.59,2.59,0,0,0,4,9.61a1,1,0,0,1-2,0,4.56,4.56,0,0,1,6.75-4,6.09,6.09,0,0,1,10.87-.41A4.82,4.82,0,0,1,20.79,5,4.58,4.58,0,0,1,23.6,6h0a7.53,7.53,0,0,1,8.62-3.7A7.55,7.55,0,0,1,37.8,9.57ZM24.42,8.7l.08,0-.11.06Zm.47-.61a.44.44,0,0,1-.06.16A.9.9,0,0,0,24.91,8S24.89,8.07,24.89,8.09Z"/></g></svg>