<svg id="Layer_1" data-name="Layer 1" xmlns="http://www.w3.org/2000/svg" viewBox="0 0 70 60"><defs><style>.cls-1{fill:#fac62d;}.cls-2{fill:#fef4ce;}.cls-3{fill:#f9c62d;}</style></defs><g id="Group_11611" data-name="Group 11611"><g id="Group_11610" data-name="Group 11610"><g id="Group_11602" data-name="Group 11602"><path id="Path_10242" data-name="Path 10242" class="cls-1" d="M44.45,60h-2.9a1,1,0,0,1,0-1.94h1.94V56.12a1,1,0,0,1,1.93,0V59A1,1,0,0,1,44.45,60Z"/></g><g id="Group_11603" data-name="Group 11603"><path id="Path_10243" data-name="Path 10243" class="cls-1" d="M33.18,60H26.9a1,1,0,0,1,0-1.94h6.28a1,1,0,0,1,0,1.94ZM18.52,60H12.24a1,1,0,0,1,0-1.94h6.28a1,1,0,0,1,0,1.94Z"/></g><g id="Group_11604" data-name="Group 11604"><path id="Path_10244" data-name="Path 10244" class="cls-1" d="M3.87,60H1a1,1,0,0,1-1-1V56.12a1,1,0,0,1,1.93,0v1.94H3.87a1,1,0,0,1,0,1.94Z"/></g><g id="Group_11605" data-name="Group 11605"><path id="Path_10245" data-name="Path 10245" class="cls-1" d="M1,48.7a1,1,0,0,1-1-1v-6.3a1,1,0,1,1,1.93,0v6.3A1,1,0,0,1,1,48.7ZM1,34a1,1,0,0,1-1-1v-6.3a1,1,0,0,1,1-1,1,1,0,0,1,1,1V33A1,1,0,0,1,1,34Z"/></g><g id="Group_11606" data-name="Group 11606"><path id="Path_10246" data-name="Path 10246" class="cls-1" d="M1,19.3a1,1,0,0,1-1-1V15.43a1,1,0,0,1,1-1h2.9a1,1,0,0,1,0,1.94H1.93v1.94A1,1,0,0,1,1,19.3Z"/></g><g id="Group_11607" data-name="Group 11607"><path id="Path_10247" data-name="Path 10247" class="cls-1" d="M33.18,16.4H26.9a1,1,0,0,1,0-1.94h6.28a1,1,0,0,1,0,1.94Zm-14.66,0H12.24a1,1,0,1,1,0-1.94h6.28a1,1,0,1,1,0,1.94Z"/></g><g id="Group_11608" data-name="Group 11608"><path id="Path_10248" data-name="Path 10248" class="cls-1" d="M44.45,19.3a1,1,0,0,1-1-1V16.4H41.55a1,1,0,0,1,0-1.94h2.9a1,1,0,0,1,1,1v2.91A1,1,0,0,1,44.45,19.3Z"/></g><g id="Group_11609" data-name="Group 11609"><path id="Path_10249" data-name="Path 10249" class="cls-1" d="M44.45,48.7a1,1,0,0,1-1-1v-6.3a1,1,0,1,1,1.93,0v6.3A1,1,0,0,1,44.45,48.7Zm0-14.7a1,1,0,0,1-1-1v-6.3a1,1,0,1,1,1.93,0V33A1,1,0,0,1,44.45,34Z"/></g></g><rect id="Rectangle_4016" data-name="Rectangle 4016" class="cls-2" x="15.1" width="45.42" height="45.54" rx="0.97"/><path id="Path_10250" data-name="Path 10250" class="cls-3" d="M69.81,50l-4,3.72a.62.62,0,0,1-.85,0l-4.22-4.54-3.47,3.24a.57.57,0,0,1-.81,0,.59.59,0,0,1-.12-.22l-1.46-4.94-1.14-3.86L51.2,34.74a.58.58,0,0,1,.4-.71.64.64,0,0,1,.36,0l8.36,3.14,2.72,1,5.84,2.19a.57.57,0,0,1,.34.74.6.6,0,0,1-.14.21l-3.46,3.25,4.21,4.53a.6.6,0,0,1,0,.85Z"/></g></svg>