<svg xmlns="http://www.w3.org/2000/svg" viewBox="0 0 70 70"><g id="Layer_90" data-name="Layer 90"><path d="M55,26.31c0-.13,0-.27,0-.4a20,20,0,0,0-40,0c0,.13,0,.26,0,.39A19.93,19.93,0,1,0,35,60.7,19.93,19.93,0,1,0,55,26.31ZM35,8A18,18,0,0,1,53,25.44a19.91,19.91,0,0,0-18,2,19.91,19.91,0,0,0-18-2A18,18,0,0,1,35,8Zm0,50.26a17.82,17.82,0,0,1-7-13.68,19.79,19.79,0,0,0,7,1.26,20,20,0,0,0,7-1.26A17.82,17.82,0,0,1,35,58.25ZM26.17,41.52a17.93,17.93,0,0,1-9.1-14A17.83,17.83,0,0,1,24,26.16a18.06,18.06,0,0,1,9.28,2.57A19.88,19.88,0,0,0,26.17,41.52ZM35,29.92a17.88,17.88,0,0,1,6.93,12.53,18,18,0,0,1-13.86,0A17.88,17.88,0,0,1,35,29.92Zm1.72-1.18a18,18,0,0,1,16.21-1.19,17.93,17.93,0,0,1-9.1,14A19.84,19.84,0,0,0,36.72,28.74ZM24,62a17.9,17.9,0,0,1-8.83-33.53A20,20,0,0,0,26,43.7c0,.13,0,.26,0,.39a19.84,19.84,0,0,0,7.27,15.35A17.93,17.93,0,0,1,24,62Zm22,0a17.93,17.93,0,0,1-9.27-2.57A19.87,19.87,0,0,0,44,44.09c0-.13,0-.26,0-.39A20,20,0,0,0,54.83,28.48,17.9,17.9,0,0,1,46,62Z"/></g></svg>