<svg xmlns="http://www.w3.org/2000/svg" viewBox="0 0 32 32"><g id="mypage_create"><path d="M26,8.81a1.21,1.21,0,0,0-.05-.18l-.1-.21-.12-.13-.1-.1-.05,0L19.71,2.29h0a1.24,1.24,0,0,0-.23-.17s0,0,0,0A1.07,1.07,0,0,0,19.19,2L19,2H9A3,3,0,0,0,6,5V27a3,3,0,0,0,3,3H23a3,3,0,0,0,3-3V9A1.11,1.11,0,0,0,26,8.81Zm-6-3.4L22.59,8H20ZM24,27a1,1,0,0,1-1,1H9a1,1,0,0,1-1-1V5A1,1,0,0,1,9,4h9V9a1,1,0,0,0,1,1h5ZM20,17a1,1,0,0,1-1,1H17v2a1,1,0,0,1-2,0V18H13a1,1,0,0,1,0-2h2V14a1,1,0,0,1,2,0v2h2A1,1,0,0,1,20,17Z"/></g></svg>