<svg width="18" height="18" viewBox="0 0 18 18" fill="none" xmlns="http://www.w3.org/2000/svg">
<path fill-rule="evenodd" clip-rule="evenodd" d="M13.3725 4.82723C13.365 4.79172 13.3545 4.75679 13.3412 4.72277L13.2787 4.60089L13.2037 4.52545L13.1413 4.46741H13.11L9.44201 1.0433C9.39836 1.00538 9.35013 0.972271 9.29828 0.944643C9.24189 0.913282 9.18083 0.889816 9.11707 0.875H2.74962C2.25244 0.875 1.77562 1.05843 1.42406 1.38495C1.0725 1.71146 0.875 2.15431 0.875 2.61607V15.3839C0.875 15.8457 1.0725 16.2885 1.42406 16.6151C1.77562 16.9416 2.25244 17.125 2.74962 17.125H11.4978C11.995 17.125 12.4718 16.9416 12.8234 16.6151C13.175 16.2885 13.3725 15.8457 13.3725 15.3839V14.9204C13.6758 14.7711 13.9646 14.589 14.2332 14.3756L16.1912 16.339C16.2418 16.39 16.302 16.4305 16.3683 16.4581C16.4346 16.4858 16.5058 16.5 16.5776 16.5C16.6494 16.5 16.7206 16.4858 16.7869 16.4581C16.8532 16.4305 16.9134 16.39 16.964 16.339C17.015 16.2884 17.0555 16.2282 17.0831 16.1619C17.1108 16.0956 17.125 16.0244 17.125 15.9526C17.125 15.8808 17.1108 15.8096 17.0831 15.7433C17.0555 15.677 17.015 15.6168 16.964 15.5662L15.0006 13.6082C15.7578 12.655 16.1218 11.4482 16.0178 10.2352C15.9137 9.02229 15.3497 7.89508 14.4412 7.08472C14.1164 6.79508 13.7565 6.55375 13.3725 6.36479V4.9375C13.3758 4.90081 13.3758 4.86392 13.3725 4.82723ZM12.1227 5.9523V5.51786H8.99835C8.83262 5.51786 8.67368 5.45671 8.55649 5.34787C8.43931 5.23904 8.37347 5.09142 8.37347 4.9375V2.03571H2.74962C2.58389 2.03571 2.42495 2.09686 2.30777 2.2057C2.19058 2.31454 2.12475 2.46215 2.12475 2.61607V15.3839C2.12475 15.5378 2.19058 15.6855 2.30777 15.7943C2.42495 15.9031 2.58389 15.9643 2.74962 15.9643H11.4978C11.6636 15.9643 11.8225 15.9031 11.9397 15.7943C12.0569 15.6855 12.1227 15.5378 12.1227 15.3839V15.3329C11.7097 15.4082 11.2854 15.4292 10.8602 15.3928C9.64729 15.2887 8.52008 14.7247 7.70972 13.8162C7.65913 13.7594 7.61002 13.7017 7.56241 13.6429H3.99936C3.83364 13.6429 3.6747 13.5817 3.55751 13.4729C3.44033 13.364 3.37449 13.2164 3.37449 13.0625C3.37449 12.9086 3.44033 12.761 3.55751 12.6521C3.6747 12.5433 3.83364 12.4821 3.99936 12.4821H6.86918C6.71408 12.1113 6.60608 11.7213 6.54856 11.3214H3.99936C3.83364 11.3214 3.6747 11.2603 3.55751 11.1514C3.44033 11.0426 3.37449 10.895 3.37449 10.7411C3.37449 10.5872 3.44033 10.4395 3.55751 10.3307C3.6747 10.2219 3.83364 10.1607 3.99936 10.1607H6.52441C6.56491 9.76193 6.65531 9.37214 6.7919 9H3.99936C3.83364 9 3.6747 8.93886 3.55751 8.83002C3.44033 8.72118 3.37449 8.57356 3.37449 8.41964C3.37449 8.26572 3.44033 8.11811 3.55751 8.00927C3.6747 7.90043 3.83364 7.83929 3.99936 7.83929H7.41123C7.55699 7.63878 7.71901 7.44879 7.8964 7.2714C8.75723 6.41057 9.91476 5.91165 11.1317 5.87694C11.4662 5.8674 11.7982 5.89313 12.1227 5.9523ZM9.62322 2.85402L11.2416 4.35714H9.62322V2.85402ZM8.20799 8.59805C7.80373 9.20308 7.58795 9.9144 7.58795 10.6421C7.58795 11.6178 7.97557 12.5536 8.66554 13.2436C9.3555 13.9335 10.2913 14.3212 11.2671 14.3212C11.9947 14.3212 12.706 14.1054 13.3111 13.7011C13.9161 13.2969 14.3876 12.7223 14.6661 12.05C14.9446 11.3777 15.0174 10.638 14.8755 9.9243C14.7335 9.21062 14.3831 8.55507 13.8686 8.04054C13.354 7.526 12.6985 7.1756 11.9848 7.03364C11.2711 6.89169 10.5314 6.96454 9.85912 7.24301C9.18685 7.52147 8.61226 7.99303 8.20799 8.59805Z" fill="#C9C8C7"/>
</svg>
