<svg xmlns="http://www.w3.org/2000/svg" viewBox="0 0 100 70"><g id="Layer_3" data-name="Layer 3"><path d="M73.79,18.05a27,27,0,0,0-4.56.39,28.41,28.41,0,0,0-55,9.69A27.85,27.85,0,0,0,15,34.85,17.67,17.67,0,0,0,17.84,70h56a26,26,0,1,0,0-51.95Zm0,50H17.84A15.68,15.68,0,0,1,16.4,36.69a1,1,0,0,0,.75-.43,1,1,0,0,0,.13-.85,25.28,25.28,0,0,1-1.05-7.28A26.39,26.39,0,0,1,67.61,19.9a1,1,0,0,0,1.17.67,24,24,0,1,1,5,47.43ZM60.25,38.73a1,1,0,0,1-.77.36,1,1,0,0,1-.65-.23L50,31.55V55.4a1,1,0,0,1-2,0V31.55l-8.83,7.31a1,1,0,0,1-1.42-.13,1,1,0,0,1,.12-1.41l10.49-8.68a1,1,0,0,1,1.3,0l10.49,8.68A1,1,0,0,1,60.25,38.73Z"/></g></svg>