<svg xmlns="http://www.w3.org/2000/svg" viewBox="0 0 32.07 32.07"><g id="kakoChannel"><path d="M8.9,28.06a1.3,1.3,0,0,1-.72-.22,1.4,1.4,0,0,1-.46-1.59c.1-.42.53-2,.84-3.17C5.08,21.12,3,18,3,14.5,3,8.72,8.87,4,16,4S29,8.72,29,14.5,23.2,25,16,25a16.48,16.48,0,0,1-2-.12l-.4.27-3.9,2.66A1.55,1.55,0,0,1,8.9,28.06ZM16,6C10,6,5,9.82,5,14.5c0,2.92,1.91,5.6,5.13,7.17a1,1,0,0,1,.52,1.16c-.13.51-.39,1.47-.62,2.32l2.46-1.67.72-.49a1,1,0,0,1,.71-.16A14.35,14.35,0,0,0,16,23c6.06,0,11-3.8,11-8.48S22.1,6,16,6Z"/></g></svg>