<svg id="Layer_1" data-name="Layer 1" xmlns="http://www.w3.org/2000/svg" xmlns:xlink="http://www.w3.org/1999/xlink" viewBox="0 0 23.03 23.03"><defs><style>.cls-1,.cls-3,.cls-4{fill:none;}.cls-1,.cls-4{stroke:#f7b400;stroke-width:1.7px;}.cls-1{stroke-linecap:round;stroke-linejoin:round;}.cls-2{clip-path:url(#clip-path);}</style><clipPath id="clip-path"><rect class="cls-1" x="-24.55" y="4.12" width="20.5" height="14.8" rx="1.88"/></clipPath></defs><title>moreDetail</title><g class="cls-2"><path class="cls-1" d="M-24.07-9.63h20a0,0,0,0,1,0,0v20a0,0,0,0,1,0,0H-21.81a2.26,2.26,0,0,1-2.26-2.26V-9.63a0,0,0,0,1,0,0Z" transform="translate(-4.38 -9.83) rotate(-45)"/><polyline class="cls-1" points="-10.13 10.6 0.1 20.82 -14.06 34.98 -28.22 20.82 -17.99 10.6"/></g><rect class="cls-1" x="-24.55" y="4.12" width="20.5" height="14.8" rx="1.88"/><g id="Ellipse_331" data-name="Ellipse 331"><circle class="cls-3" cx="3.27" cy="11.51" r="2.75"/><circle class="cls-4" cx="3.27" cy="11.51" r="1.83"/></g><g id="Ellipse_333" data-name="Ellipse 333"><circle class="cls-3" cx="19.76" cy="11.51" r="2.75"/><circle class="cls-4" cx="19.76" cy="11.51" r="1.83"/></g><g id="Ellipse_332" data-name="Ellipse 332"><circle class="cls-3" cx="11.51" cy="11.51" r="2.75"/><circle class="cls-4" cx="11.51" cy="11.51" r="1.83"/></g></svg>