<svg id="Layer_1" data-name="Layer 1" xmlns="http://www.w3.org/2000/svg" viewBox="0 0 32 32"><defs><style>.cls-1{fill:#fac609;}.cls-2,.cls-3{fill:none;stroke:#fff;stroke-width:1.5px;}.cls-2{stroke-miterlimit:10;}.cls-3{stroke-linecap:round;stroke-linejoin:round;}</style></defs><rect class="cls-1" x="1.5" y="1.5" width="29" height="29" rx="2.5"/><rect class="cls-2" x="7.85" y="8" width="16.31" height="16.31" rx="0.65"/><path id="Path_3828" data-name="Path 3828" class="cls-3" d="M12.84,16.38l2.05,2.54,4.28-5.54"/><path class="cls-1" d="M28,0H4A4,4,0,0,0,0,4V28a4,4,0,0,0,4,4H28a4,4,0,0,0,4-4V4A4,4,0,0,0,28,0Zm2.5,28A2.5,2.5,0,0,1,28,30.5H4A2.5,2.5,0,0,1,1.5,28V4A2.5,2.5,0,0,1,4,1.5H28A2.5,2.5,0,0,1,30.5,4Z"/></svg>