<svg id="Layer_1" data-name="Layer 1" xmlns="http://www.w3.org/2000/svg" viewBox="0 0 28.06 25.94"><defs><style>.cls-1{fill:none;stroke:#f2ab27;stroke-linecap:round;stroke-linejoin:round;stroke-width:2px;}</style></defs><polyline class="cls-1" points="5.89 17.18 3.36 21.2 24.7 21.2 22.16 17.18"/><path class="cls-1" d="M17,21.84a2.92,2.92,0,0,1-5.84,0"/><line class="cls-1" x1="14.03" y1="1.18" x2="14.03" y2="3.15"/><path class="cls-1" d="M22.16,17.18V11.83a8.1,8.1,0,0,0-.13-1.4"/><path class="cls-1" d="M17.53,4.49A8.13,8.13,0,0,0,5.9,11.83v5.35"/><path class="cls-1" d="M17.53,4.49a3.8,3.8,0,0,0-.87,2.41A3.84,3.84,0,0,0,22,10.43"/><path class="cls-1" d="M17.53,4.49A3.84,3.84,0,1,1,22,10.43"/></svg>