<svg id="Layer_1" data-name="Layer 1" xmlns="http://www.w3.org/2000/svg" viewBox="0 0 53.38 63.02"><defs><style>.cls-1{fill:#3b3939;}.cls-2{fill:none;stroke:#3b3939;stroke-linecap:round;stroke-linejoin:round;stroke-width:2.5px;}</style></defs><title>ppt</title><path class="cls-1" d="M15.49,38.6a5.56,5.56,0,0,1,3.78,1.1,4,4,0,0,1,1.22,3.1A5.17,5.17,0,0,1,20,45a3.82,3.82,0,0,1-1.61,1.68,6.1,6.1,0,0,1-3,.65H14.24v4.59H11.07V38.6Zm-.11,2.6H14.24v3.54h.84a2.68,2.68,0,0,0,1.58-.43,1.58,1.58,0,0,0,.62-1.42C17.28,41.76,16.65,41.2,15.38,41.2Z"/><path class="cls-1" d="M33.68,45.06a6.57,6.57,0,0,1-1.9,5.15,7.53,7.53,0,0,1-5.25,1.72h-4V38.6H26.9a7.1,7.1,0,0,1,5,1.65A6.19,6.19,0,0,1,33.68,45.06Zm-3.29.11a4.39,4.39,0,0,0-.86-3,3.21,3.21,0,0,0-2.53-1H25.69v8.11h1a3.49,3.49,0,0,0,2.78-1A4.64,4.64,0,0,0,30.39,45.17Z"/><path class="cls-1" d="M39.11,51.93H36V38.6h7.75v2.58H39.11v3h4.27v2.58H39.11Z"/><polygon class="cls-2" points="52.13 20.42 52.13 61.77 1.25 61.77 1.25 1.25 32.21 1.25 52.13 20.42"/><polyline class="cls-2" points="51.17 20.42 32 20.42 32 1.25"/><rect class="cls-2" x="10.99" y="13.54" width="14.26" height="6.88"/><line class="cls-2" x1="11.08" y1="25.75" x2="42.16" y2="25.75"/><line class="cls-2" x1="11.08" y1="30.46" x2="32.47" y2="30.46"/></svg>