<svg width="32" height="32" viewBox="0 0 32 32" fill="none" xmlns="http://www.w3.org/2000/svg">
<path d="M25 4H7C6.20435 4 5.44129 4.31607 4.87868 4.87868C4.31607 5.44129 4 6.20435 4 7V25C4 25.7956 4.31607 26.5587 4.87868 27.1213C5.44129 27.6839 6.20435 28 7 28H25C25.7956 28 26.5587 27.6839 27.1213 27.1213C27.6839 26.5587 28 25.7956 28 25V7C28 6.20435 27.6839 5.44129 27.1213 4.87868C26.5587 4.31607 25.7956 4 25 4V4ZM26 25C26 25.2652 25.8946 25.5196 25.7071 25.7071C25.5196 25.8946 25.2652 26 25 26H7C6.73478 26 6.48043 25.8946 6.29289 25.7071C6.10536 25.5196 6 25.2652 6 25V7C6 6.73478 6.10536 6.48043 6.29289 6.29289C6.48043 6.10536 6.73478 6 7 6H25C25.2652 6 25.5196 6.10536 25.7071 6.29289C25.8946 6.48043 26 6.73478 26 7V25ZM23 22C23 22.2652 22.8946 22.5196 22.7071 22.7071C22.5196 22.8946 22.2652 23 22 23H12.73C12.5546 23.3037 12.3025 23.556 11.9988 23.7315C11.6952 23.9071 11.3507 23.9996 11 24C10.4696 24 9.96086 23.7893 9.58579 23.4142C9.21071 23.0391 9 22.5304 9 22C9 21.4696 9.21071 20.9609 9.58579 20.5858C9.96086 20.2107 10.4696 20 11 20C11.349 20.0021 11.6914 20.0955 11.9932 20.2709C12.2949 20.4464 12.5455 20.6977 12.72 21H22C22.2652 21 22.5196 21.1054 22.7071 21.2929C22.8946 21.4804 23 21.7348 23 22ZM23 16C23 16.2652 22.8946 16.5196 22.7071 16.7071C22.5196 16.8946 22.2652 17 22 17H12.73C12.5546 17.3037 12.3025 17.556 11.9988 17.7315C11.6952 17.9071 11.3507 17.9996 11 18C10.4696 18 9.96086 17.7893 9.58579 17.4142C9.21071 17.0391 9 16.5304 9 16C9 15.4696 9.21071 14.9609 9.58579 14.5858C9.96086 14.2107 10.4696 14 11 14C11.349 14.0021 11.6914 14.0955 11.9932 14.2709C12.2949 14.4464 12.5455 14.6977 12.72 15H22C22.2652 15 22.5196 15.1054 22.7071 15.2929C22.8946 15.4804 23 15.7348 23 16ZM23 10C23 10.2652 22.8946 10.5196 22.7071 10.7071C22.5196 10.8946 22.2652 11 22 11H12.73C12.5546 11.3037 12.3025 11.556 11.9988 11.7315C11.6952 11.9071 11.3507 11.9996 11 12C10.4696 12 9.96086 11.7893 9.58579 11.4142C9.21071 11.0391 9 10.5304 9 10C9 9.46957 9.21071 8.96086 9.58579 8.58579C9.96086 8.21071 10.4696 8 11 8C11.349 8.00211 11.6914 8.09552 11.9932 8.27095C12.2949 8.44638 12.5455 8.69772 12.72 9H22C22.2652 9 22.5196 9.10536 22.7071 9.29289C22.8946 9.48043 23 9.73478 23 10Z" fill="#2B2E33"/>
</svg>
