<svg xmlns="http://www.w3.org/2000/svg" viewBox="0 0 32 32"><g id="stickyNavPoints"><path id="Group_11383" data-name="Group 11383" d="M9.77,19.38v2.17a.25.25,0,0,1-.25.25H2.4a.24.24,0,0,1-.24-.25V19.38a.23.23,0,0,1,.24-.24H4.55V13.26H2.72A.25.25,0,0,1,2.47,13V11.35a.25.25,0,0,1,.21-.24,7.32,7.32,0,0,0,2.69-1,.33.33,0,0,1,.13,0h2a.25.25,0,0,1,.25.25v8.8H9.52A.24.24,0,0,1,9.77,19.38Zm9.7-.34H17.39c-.4,0-.78,0-1.17.07,2-2.12,3-3.91,3-5.44a3.23,3.23,0,0,0,0-.44,3.67,3.67,0,0,0-3.93-3.36,5,5,0,0,0-4,1.83.24.24,0,0,0,0,.34l1.51,1.44a.29.29,0,0,0,.2.07.27.27,0,0,0,.16-.1,2.52,2.52,0,0,1,1.72-1h.21a1.14,1.14,0,0,1,.77.45,1.18,1.18,0,0,1,.22.87c0,1.64-2.21,3.87-4.61,6a.23.23,0,0,0-.08.18v1.52a.25.25,0,0,0,.25.25h7.8a.25.25,0,0,0,.25-.25V19.28A.25.25,0,0,0,19.47,19ZM28,15.7a2.84,2.84,0,0,0,1.47-2.48c0-2.09-1.55-3.34-4.12-3.34a5.55,5.55,0,0,0-3.66,1.46.24.24,0,0,0,0,.34l1.39,1.62a.27.27,0,0,0,.19.08.27.27,0,0,0,.18-.07,2.79,2.79,0,0,1,1.87-.87h.21a.89.89,0,0,1,.8,1c0,.59-.26,1.25-2.29,1.25a.25.25,0,0,0-.24.25v1.92a.25.25,0,0,0,.24.25c2.64,0,2.64.84,2.64,1.24,0,1-1.16,1-1.51,1a3.19,3.19,0,0,1-2.18-1,.24.24,0,0,0-.19-.08.22.22,0,0,0-.18.1l-1.25,1.7a.23.23,0,0,0,0,.3A5.05,5.05,0,0,0,25.12,22h.31c2.6,0,4.41-1.45,4.41-3.52A3,3,0,0,0,28,15.7Z"/></g></svg>