<svg id="Layer_1" data-name="Layer 1" xmlns="http://www.w3.org/2000/svg" viewBox="0 0 83.85 21.91"><defs><style>.cls-1{isolation:isolate;}.cls-2{fill:#fac609;}.cls-3{fill:none;}</style></defs><title>survey</title><g id="수정"><g class="cls-1"><path class="cls-2" d="M36.57,10.92a5.15,5.15,0,0,1-3.12-2.76,5.44,5.44,0,0,1-3.31,3.06L29.34,10a4.47,4.47,0,0,0,3.3-4.25V4.62h1.55V5.76a4.27,4.27,0,0,0,3.19,4Zm4.5,5.45v1.21H31.82V14.07h7.26V13H31.79v-1.2h8.82v3.42H33.35v1.16Zm-2-8.67H36.32V6.45h2.74V4.19h1.55v7H39.06Z"/><path class="cls-2" d="M55.46,11v1.24H50.21v2.54H48.66V12.27H43.17V11Zm-9.24,5.2h7.87v1.26H44.67V13.58h1.55Zm7.65-6.54H44.73V4.8h9.14ZM52.35,6h-6.1V8.46h6.1Z"/><path class="cls-2" d="M64.53,7H57V5.75h3V4.17h1.55V5.75h2.92Zm-3.7,5.88c-1.83,0-3.11-1.07-3.11-2.63S59,7.61,60.83,7.61,64,8.66,64,10.23,62.67,12.86,60.83,12.86Zm0-1.22c1,0,1.66-.52,1.66-1.41s-.67-1.42-1.66-1.42a1.46,1.46,0,0,0-1.65,1.42C59.18,11.12,59.85,11.64,60.83,11.64Zm7.69,4.59v1.26H59.39V13.67H61v2.56Zm-1.86-4.41H64.59V10.58h2.07V9H64.59V7.7h2.07V4.2h1.55V14.54H66.66Z"/><path class="cls-2" d="M79.25,12.33a49.52,49.52,0,0,1-8.4.56l-.18-1.2c1,0,2.2,0,3.45,0V10.7c-1.53-.18-2.46-.86-2.46-1.89,0-1.2,1.27-1.92,3.22-1.92s3.23.72,3.23,1.92c0,1-.93,1.71-2.43,1.89v.88c1.17-.06,2.35-.15,3.45-.3Zm-.5-5.91H71V5.28h3.11V4.1h1.56V5.28h3.07Zm2.73,9.22c0,1.37-1.66,2.12-4.51,2.12s-4.53-.75-4.53-2.12S74.1,13.53,77,13.53,81.48,14.27,81.48,15.64Zm-6.6-5.92c1.1,0,1.77-.33,1.77-.91s-.67-.9-1.77-.9-1.77.33-1.77.9S73.8,9.72,74.88,9.72Zm5,5.92c0-.65-1-1-3-1s-3,.33-3,1,1,1,3,1S79.92,16.29,79.92,15.64Zm3.33-7.46V9.45H81.39v3.9H79.85V4.22h1.54v4Z"/></g></g><path class="cls-2" d="M16.9,20.09H.65A.66.66,0,0,1,0,19.43V.65A.65.65,0,0,1,.65,0H16.9a.65.65,0,0,1,.65.65V19.43A.66.66,0,0,1,16.9,20.09ZM1.3,18.78h15V1.3H1.3Z"/><g id="Polygon_1" data-name="Polygon 1"><path class="cls-3" d="M13.35,9.41a.2.2,0,0,1,.06.27s0,.05-.06.07L5.93,14.39a.2.2,0,0,1-.28-.07.17.17,0,0,1,0-.1V4.94a.2.2,0,0,1,.2-.2.23.23,0,0,1,.11,0Z"/><path class="cls-2" d="M11.17,9.58,6.92,6.92v5.31l4.25-2.65m2.27,0a.21.21,0,0,1-.09.17L5.93,14.39a.2.2,0,0,1-.31-.17V4.94a.2.2,0,0,1,.31-.17l7.42,4.64A.2.2,0,0,1,13.44,9.58Z"/></g></svg>