<svg width="32" height="32" viewBox="0 0 32 32" fill="none" xmlns="http://www.w3.org/2000/svg">
<path d="M25 28H7C6.20435 28 5.44129 27.6839 4.87868 27.1213C4.31607 26.5587 4 25.7956 4 25V7C4 6.20435 4.31607 5.44129 4.87868 4.87868C5.44129 4.31607 6.20435 4 7 4H25C25.7956 4 26.5587 4.31607 27.1213 4.87868C27.6839 5.44129 28 6.20435 28 7V25C28 25.7956 27.6839 26.5587 27.1213 27.1213C26.5587 27.6839 25.7956 28 25 28ZM7 6C6.73478 6 6.48043 6.10536 6.29289 6.29289C6.10536 6.48043 6 6.73478 6 7V25C6 25.2652 6.10536 25.5196 6.29289 25.7071C6.48043 25.8946 6.73478 26 7 26H25C25.2652 26 25.5196 25.8946 25.7071 25.7071C25.8946 25.5196 26 25.2652 26 25V7C26 6.73478 25.8946 6.48043 25.7071 6.29289C25.5196 6.10536 25.2652 6 25 6H7ZM13.37 22.58C13.5558 22.5623 13.7329 22.493 13.8814 22.3799C14.0298 22.2668 14.1437 22.1144 14.21 21.94L17.6 12.94L19 18.16C19.0605 18.3763 19.192 18.5659 19.3734 18.6984C19.5548 18.8308 19.7756 18.8983 20 18.89H23C23.2652 18.89 23.5196 18.7846 23.7071 18.5971C23.8946 18.4096 24 18.1552 24 17.89C24 17.6248 23.8946 17.3704 23.7071 17.1829C23.5196 16.9954 23.2652 16.89 23 16.89H20.76L18.71 9.43C18.6543 9.22629 18.5356 9.04543 18.3708 8.91335C18.206 8.78127 18.0036 8.70476 17.7927 8.69476C17.5817 8.68477 17.3731 8.74182 17.1965 8.85773C17.02 8.97364 16.8847 9.14246 16.81 9.34L13.05 19.34L11.61 17C11.5199 16.8559 11.3946 16.7371 11.2459 16.6549C11.0972 16.5726 10.9299 16.5297 10.76 16.53H9C8.73478 16.53 8.48043 16.6354 8.29289 16.8229C8.10536 17.0104 8 17.2648 8 17.53C8 17.7952 8.10536 18.0496 8.29289 18.2371C8.48043 18.4246 8.73478 18.53 9 18.53H10.23L12.44 22.08C12.5301 22.2241 12.6554 22.3429 12.8041 22.4251C12.9528 22.5074 13.1201 22.5503 13.29 22.55L13.37 22.58Z"/>
</svg>
