<svg xmlns="http://www.w3.org/2000/svg" viewBox="0 0 32 32"><g id="dashboard_question"><path d="M16,30A14,14,0,1,1,30,16,14,14,0,0,1,16,30ZM16,4A12,12,0,1,0,28,16,12,12,0,0,0,16,4Zm1,15.54a3.87,3.87,0,0,1,1.73-3.09,4.67,4.67,0,0,0,1.81-4.87,4.61,4.61,0,0,0-3.45-3.46,4.7,4.7,0,0,0-4,.9,4.64,4.64,0,0,0-1.76,3.65h2a2.67,2.67,0,1,1,4.23,2.16A5.83,5.83,0,0,0,15,19.54V20h2Zm.07,3.39h0A1.07,1.07,0,0,0,16,21.86h0a1.07,1.07,0,0,0-1.07,1.07h0A1.07,1.07,0,0,0,16,24h0A1.07,1.07,0,0,0,17.07,22.93Z"/></g></svg>