<svg width="16" height="16" viewBox="0 0 16 16" fill="none" xmlns="http://www.w3.org/2000/svg">
<path d="M8.00358 14.2924C11.4769 14.2924 14.2925 11.4768 14.2925 8.00352C14.2925 4.53025 11.4769 1.7146 8.00358 1.7146C4.53031 1.7146 1.71466 4.53025 1.71466 8.00352C1.71466 11.4768 4.53031 14.2924 8.00358 14.2924Z" stroke="#C9C8C7" stroke-width="2"/>
<path d="M6.95305 9.1685C6.93061 8.78462 7.01654 8.40216 7.20103 8.06477C7.38552 7.72738 7.66114 7.44865 7.99644 7.26038C8.33232 7.02455 8.61818 6.8173 8.61818 6.4028C8.61876 6.22277 8.55136 6.04915 8.42947 5.91665C8.30758 5.78416 8.14016 5.70255 7.9607 5.68815H7.91068C7.72114 5.68815 7.53937 5.76345 7.40535 5.89747C7.27132 6.03149 7.19603 6.21327 7.19603 6.4028C7.19254 6.4217 7.19254 6.44108 7.19603 6.45997H5.39511C5.39511 4.95206 6.53855 4.14451 7.92497 4.14451C8.52794 4.08646 9.12947 4.2685 9.59907 4.65114C10.0687 5.03378 10.3685 5.58615 10.4334 6.18841C10.437 6.25506 10.437 6.32186 10.4334 6.38851C10.4371 6.74387 10.3464 7.09384 10.1707 7.4027C9.99488 7.71156 9.74029 7.96825 9.43288 8.14655C9.05412 8.43956 8.71823 8.69683 8.71823 9.18279V9.37575H6.95305V9.1685ZM6.90302 9.88315H8.73253V11.634H6.90302V9.88315Z" fill="#C9C8C7"/>
</svg>
