<svg xmlns="http://www.w3.org/2000/svg" viewBox="0 0 32 32"><g id="multipleChart"><path d="M25,4H7A3,3,0,0,0,4,7V25a3,3,0,0,0,3,3H25a3,3,0,0,0,3-3V7A3,3,0,0,0,25,4Zm1,21a1,1,0,0,1-1,1H7a1,1,0,0,1-1-1V7A1,1,0,0,1,7,6H25a1,1,0,0,1,1,1Zm-3-3a1,1,0,0,1-1,1H12.73A2,2,0,0,1,11,24a2,2,0,1,1,0-4,2,2,0,0,1,1.72,1H22A1,1,0,0,1,23,22Zm0-6a1,1,0,0,1-1,1H12.73A2,2,0,0,1,11,18a2,2,0,1,1,0-4,2,2,0,0,1,1.72,1H22A1,1,0,0,1,23,16Zm0-6a1,1,0,0,1-1,1H12.73A2,2,0,0,1,11,12a2,2,0,1,1,0-4,2,2,0,0,1,1.72,1H22A1,1,0,0,1,23,10Z"/></g></svg>