<svg xmlns="http://www.w3.org/2000/svg" viewBox="0 0 32 32"><g id="reset"><path d="M25.18,6v4.14a1,1,0,0,1-1,1H19.9a1,1,0,0,1,0-2h2A9.13,9.13,0,0,0,16,7a8.85,8.85,0,0,0-9,8.67,8.68,8.68,0,0,0,.17,1.67,1,1,0,0,1-.78,1.18l-.2,0a1,1,0,0,1-1-.81A10.29,10.29,0,0,1,5,15.71,10.85,10.85,0,0,1,16,5,11.24,11.24,0,0,1,23.18,7.6V6a1,1,0,1,1,2,0ZM27,14.47a1,1,0,0,0-2,.23,8.57,8.57,0,0,1,.07,1,8.85,8.85,0,0,1-9,8.68,9.22,9.22,0,0,1-5-1.49h1.68a1,1,0,0,0,0-2H8.39a1,1,0,0,0-1,.83,1.49,1.49,0,0,0,0,.21V26a1,1,0,1,0,2,0V24.22A11.17,11.17,0,0,0,16,26.39,10.85,10.85,0,0,0,27,15.71,11.33,11.33,0,0,0,27,14.47Z"/></g></svg>