<svg xmlns="http://www.w3.org/2000/svg" xmlns:xlink="http://www.w3.org/1999/xlink" viewBox="0 0 39.26 69.65"><defs><style>.cls-1{fill:none;stroke:#f9c512;stroke-linecap:round;stroke-miterlimit:10;stroke-width:2px;}.cls-2{clip-path:url(#clip-path);}</style><clipPath id="clip-path"><path class="cls-1" d="M27.45,46.26H11.82l-3.89-19a24.75,24.75,0,0,1,8.9-24.53L17,2.6l1.66-1.28a1.59,1.59,0,0,1,1.92,0L22.26,2.6l.17.13a24.75,24.75,0,0,1,8.9,24.53Z"/></clipPath></defs><g id="Layer_2" data-name="Layer 2"><path class="cls-1" d="M30.18,32.87a15.12,15.12,0,0,1,8.08,13.39H1A15.12,15.12,0,0,1,8.92,33"/><g class="cls-2"><path class="cls-1" d="M25.4,2.06a5.77,5.77,0,0,1-11.54,0"/></g><path class="cls-1" d="M27.45,46.26H11.82l-3.89-19a24.75,24.75,0,0,1,8.9-24.53L17,2.6l1.66-1.28a1.59,1.59,0,0,1,1.92,0L22.26,2.6l.17.13a24.75,24.75,0,0,1,8.9,24.53Z"/><circle class="cls-1" cx="19.63" cy="21.83" r="4.73"/><line class="cls-1" x1="19.63" y1="34.62" x2="19.63" y2="52.75"/><line class="cls-1" x1="19.63" y1="59.12" x2="19.63" y2="68.65"/><line class="cls-1" x1="14.67" y1="55.84" x2="14.67" y2="62.78"/><line class="cls-1" x1="24.59" y1="55.84" x2="24.59" y2="62.78"/></g></svg>