<svg xmlns="http://www.w3.org/2000/svg" viewBox="0 0 32 32"><g id="sankeyChartSolid"><path d="M25,4H7A3,3,0,0,0,4,7V25a3,3,0,0,0,3,3H25a3,3,0,0,0,3-3V7A3,3,0,0,0,25,4ZM23.75,15.26a.75.75,0,0,1-1.5,0V15a4.35,4.35,0,0,0-2.68,1.65,6.56,6.56,0,0,0,2.7,1,.75.75,0,0,1,1.48.14v4.49a.75.75,0,0,1-1.5,0V22a8.64,8.64,0,0,1-4.47-2.13l-.49-.38a9.81,9.81,0,0,1-7.55,3.83A.74.74,0,0,1,9,24a.76.76,0,0,1-.75-.75V19.84A.75.75,0,0,1,9,19.09a.74.74,0,0,1,.73.59A6,6,0,0,0,14,17.51a13.68,13.68,0,0,0-4.24-1,.75.75,0,0,1-1.5,0v-7a.75.75,0,0,1,1.5,0v.17c2.87.26,4.45,2,6.11,3.79l.51.56c1.26-1.92,2.85-3.76,5.88-4V9.71a.75.75,0,0,1,1.5,0Zm-8.82,1A16.57,16.57,0,0,0,9.75,15v-3.8c2.22.24,3.47,1.6,5,3.29q.38.42.78.84C15.34,15.64,15.14,16,14.93,16.26Zm3.7,1.52a8,8,0,0,0,3.62,1.35v1.36a7.47,7.47,0,0,1-3.56-1.81l-.47-.36c.07-.09.14-.17.2-.26Zm3.62-6.23v1.9a6.39,6.39,0,0,0-4.36,2.85.61.61,0,0,0-.07.1c-.21.25-.41.5-.6.76-1.64,2.17-3.34,4.42-7.47,4.65v-.62a7.72,7.72,0,0,0,6-3.55,0,0,0,0,0,0,0l.06-.09c.41-.56.78-1.15,1.13-1.71l.12-.2C18.42,13.56,19.6,11.78,22.25,11.55Z"/></g></svg>