<svg xmlns="http://www.w3.org/2000/svg" viewBox="0 0 32 32"><g id="scoring"><path d="M15.21,16.87H9.51a0,0,0,0,0,0,.05v3.2a0,0,0,0,0,0,.05h5.7a0,0,0,0,0,0-.05v-3.2A0,0,0,0,0,15.21,16.87Zm-1.47,1.22V19H11v-.86Zm1.52-6.31v4.84a.05.05,0,0,1,0,.05H13.76a.05.05,0,0,1,0-.05V14.84h-1a0,0,0,0,1,0-.05V13.63a.05.05,0,0,1,0-.05h1v-1.8a.05.05,0,0,1,0,0h1.45A.05.05,0,0,1,15.26,11.78Zm-2,3.62a0,0,0,0,1,0,0l-.71,1.12a0,0,0,0,1-.06,0,3,3,0,0,1-1.82-1.46,3.25,3.25,0,0,1-1.95,1.61,0,0,0,0,1,0,0s0,0,0,0L8,15.57a.06.06,0,0,1,0,0l0,0a2.46,2.46,0,0,0,1.87-2.17H8.38a0,0,0,0,1-.05-.05V12.14a.05.05,0,0,1,.05-.05h4.54a.05.05,0,0,1,.05.05v1.14a0,0,0,0,1-.05.05H11.48a2.37,2.37,0,0,0,1.77,2Zm10.77,2s0,0,0,0H20.92v2.74s0,.05,0,.05H19.42a.05.05,0,0,1-.05-.05V17.48h-3a0,0,0,0,1-.05-.05V16.27a.05.05,0,0,1,.05-.05H24a.05.05,0,0,1,.05.05Zm-.23-2.8a0,0,0,0,1,0,0l-.56,1.16a0,0,0,0,1,0,0h0a4.23,4.23,0,0,1-3-1.67,4.21,4.21,0,0,1-3,1.67.05.05,0,0,1,0,0l-.55-1.16a0,0,0,0,1,0,0l0,0c2.05-.28,2.78-1.34,2.78-2.25V12a0,0,0,0,1,.05-.05H21A.05.05,0,0,1,21,12v.36c0,.91.73,2,2.77,2.25A.05.05,0,0,1,23.82,14.63ZM25,4H7A3,3,0,0,0,4,7V25a3,3,0,0,0,3,3H25a3,3,0,0,0,3-3V7A3,3,0,0,0,25,4Zm1,21a1,1,0,0,1-1,1H7a1,1,0,0,1-1-1V7A1,1,0,0,1,7,6H25a1,1,0,0,1,1,1Z"/></g></svg>