<svg xmlns="http://www.w3.org/2000/svg" viewBox="0 0 32 32"><g id="surveylist_sendSolid"><path d="M29.16,6.93l0,0h0A2.89,2.89,0,0,0,27,6H5A2.89,2.89,0,0,0,3,6.9h0l0,0A2.91,2.91,0,0,0,2,9V23a3,3,0,0,0,3,3H27a3,3,0,0,0,1.23-.27A3,3,0,0,0,30,23V9A2.92,2.92,0,0,0,29.16,6.93ZM27.7,22.3a1,1,0,0,1,0,1.41A1,1,0,0,1,27,24a1,1,0,0,1-.71-.29l-6.36-6.37-2,2a2.68,2.68,0,0,1-3.7,0l-2-2L5.78,23.71a1,1,0,0,1-1.42,0,1,1,0,0,1,0-1.41l6.37-6.37L4.36,9.56A1,1,0,0,1,5.78,8.14l7.07,7.08L15.59,18a.63.63,0,0,0,.88,0l9.82-9.82a1,1,0,0,1,1.41,0,1,1,0,0,1,0,1.42l-6.37,6.37Z"/></g></svg>