<svg xmlns="http://www.w3.org/2000/svg" viewBox="0 0 32 32"><g id="surveylist_send"><path d="M28.91,7.11l-.32-.3h0A3.73,3.73,0,0,0,26.25,6H5.82a3.83,3.83,0,0,0-2.35.79l-.32.28A3.6,3.6,0,0,0,2,9.74v12.6a3.7,3.7,0,0,0,2.2,3.36A4,4,0,0,0,5.82,26H26.25a4,4,0,0,0,1.55-.33A3.73,3.73,0,0,0,30,22.34V9.74A3.63,3.63,0,0,0,28.91,7.11ZM28,9.74v12.6a1.09,1.09,0,0,1,0,.26l-6.68-6.67L28,9.29A1.33,1.33,0,0,1,28,9.74ZM5.82,8H26.38L16.47,18a.63.63,0,0,1-.88,0L5.68,8.05ZM4.06,22.6a2.11,2.11,0,0,1,0-.26V9.74A1.56,1.56,0,0,1,4.1,9.3l6.63,6.63ZM26.25,24H5.82a1.87,1.87,0,0,1-.34,0l6.67-6.67,2,2a2.68,2.68,0,0,0,3.7,0l2-2L26.58,24A1.84,1.84,0,0,1,26.25,24Z"/></g></svg>