<svg xmlns="http://www.w3.org/2000/svg" viewBox="0 0 32 32"><defs><style>.cls-1{fill:none;stroke:#000;stroke-miterlimit:10;stroke-width:2px;}</style></defs><g id="설정"><path class="cls-1" d="M27.75,18.72l-1.86-1.07a9.79,9.79,0,0,0,0-3.3l1.86-1.07a.49.49,0,0,0,.18-.68l-3-5.2a.47.47,0,0,0-.3-.23.46.46,0,0,0-.38,0L22.38,8.29a9.73,9.73,0,0,0-2.87-1.66V4.5A.5.5,0,0,0,19,4H13a.5.5,0,0,0-.5.5V6.63A9.73,9.73,0,0,0,9.62,8.29L7.76,7.22a.46.46,0,0,0-.38,0,.47.47,0,0,0-.3.23l-3,5.2a.5.5,0,0,0,.18.68l1.86,1.07a9.79,9.79,0,0,0,0,3.3L4.25,18.72a.5.5,0,0,0-.18.68l3,5.2a.47.47,0,0,0,.3.23.46.46,0,0,0,.38,0l1.87-1.07a19.33,19.33,0,0,0,2.86,1.62V27.5a.5.5,0,0,0,.5.5h6a.5.5,0,0,0,.5-.5V25.37a9.6,9.6,0,0,0,2.87-1.66l1.86,1.07a.46.46,0,0,0,.38,0,.47.47,0,0,0,.3-.23l3-5.2A.49.49,0,0,0,27.75,18.72Zm-11,.7h0a3.56,3.56,0,0,1-1.38,0h0a3.49,3.49,0,0,1-1.91-1.11,3.28,3.28,0,0,1-.68-1.21,3,3,0,0,1-.19-1.1,3.06,3.06,0,0,1,.2-1.13,3.12,3.12,0,0,1,.68-1.18,3.43,3.43,0,0,1,1.9-1.11h0a3.56,3.56,0,0,1,1.38,0h0a3.45,3.45,0,0,1,1.91,1.11,3.28,3.28,0,0,1,.68,1.21,3.28,3.28,0,0,1,0,2.2,0,0,0,0,1,0,0,3.12,3.12,0,0,1-.68,1.18A3.39,3.39,0,0,1,16.73,19.42Z"/></g></svg>