<svg xmlns="http://www.w3.org/2000/svg" viewBox="0 0 70 70"><g id="Layer_91" data-name="Layer 91"><path d="M61,24H47.81L50.32,9.68a1,1,0,0,0-.81-1.17,1,1,0,0,0-1.17.82L45.77,24H28.07L30.58,9.68a1,1,0,1,0-2-.35L26,24H11.34a1,1,0,1,0,0,2H25.68L22.59,43.69H9a1,1,0,0,0,0,2H22.24L19.68,60.32a1,1,0,0,0,.81,1.16l.18,0a1,1,0,0,0,1-.84l2.62-15H42L39.42,60.32a1,1,0,0,0,.83,1.16l.17,0a1,1,0,0,0,1-.84L44,45.7H58.66a1,1,0,1,0,0-2H44.38L47.46,26H61a1,1,0,0,0,0-2ZM42.34,43.69H24.63L27.71,26H45.42Z"/></g></svg>