<?xml version="1.0" encoding="utf-8"?>
<!-- Generator: Adobe Illustrator 25.4.1, SVG Export Plug-In . SVG Version: 6.00 Build 0)  -->
<svg version="1.1" id="레이어_1" xmlns="http://www.w3.org/2000/svg" xmlns:xlink="http://www.w3.org/1999/xlink" x="0px"
	 y="0px" viewBox="0 0 32 32" style="enable-background:new 0 0 32 32;" xml:space="preserve">
<style type="text/css">
	.st0{clip-path:url(#SVGID_00000050647203306554967200000007587439613353015734_);}
</style>
<g>
	<defs>
		<rect id="SVGID_1_" x="4" y="4.2" width="24" height="24"/>
	</defs>
	<clipPath id="SVGID_00000050629678620977276220000013495098518234832304_">
		<use xlink:href="#SVGID_1_"  style="overflow:visible;"/>
	</clipPath>
	<g style="clip-path:url(#SVGID_00000050629678620977276220000013495098518234832304_);">
		<path d="M10.9,28.2c-1.4,0-2.7-0.4-3.8-1.2s-2-1.8-2.5-3.1C4,22.7,3.9,21.4,4.1,20c0.3-1.3,0.9-2.5,1.9-3.5l3.2-3.2
			c0.2-0.2,0.4-0.3,0.7-0.3c0.3,0,0.5,0.1,0.7,0.3c0.2,0.2,0.3,0.4,0.3,0.7c0,0.3-0.1,0.5-0.3,0.7l-3.2,3.2C6.5,18.9,6,20.1,6,21.4
			c0,1.3,0.5,2.5,1.5,3.5c0.9,0.9,2.2,1.4,3.5,1.4c1.3,0,2.6-0.5,3.5-1.4l3.2-3.2c0.2-0.2,0.4-0.3,0.7-0.3s0.5,0.1,0.7,0.3
			c0.1,0.1,0.2,0.2,0.2,0.3c0.1,0.1,0.1,0.2,0.1,0.4s0,0.3-0.1,0.4c-0.1,0.1-0.1,0.2-0.2,0.3l-3.2,3.2c-0.6,0.6-1.4,1.1-2.3,1.5
			C12.7,28.1,11.8,28.2,10.9,28.2z"/>
		<path d="M25.9,26.9c-0.1,0-0.3,0-0.4-0.1c-0.1,0-0.2-0.1-0.3-0.2L5.3,6.9C5.2,6.8,5.1,6.7,5.1,6.6C5,6.4,5,6.3,5,6.2
			c0-0.1,0-0.3,0.1-0.4c0.1-0.1,0.1-0.2,0.2-0.3C5.5,5.3,5.7,5.2,6,5.2c0.3,0,0.5,0.1,0.7,0.3l19.9,19.7c0.2,0.2,0.3,0.4,0.3,0.7
			s-0.1,0.5-0.3,0.7c-0.1,0.1-0.2,0.2-0.3,0.2C26.2,26.9,26.1,26.9,25.9,26.9z"/>
		<path d="M17.5,7.6c0.9-0.9,2.2-1.4,3.5-1.4c1.3,0,2.6,0.5,3.5,1.4c0.9,0.9,1.5,2.2,1.5,3.5c0,1.3-0.5,2.5-1.5,3.5l-3.1,3.1
			l1.4,1.4l3.1-3.1c0.6-0.6,1.2-1.4,1.5-2.2c0.3-0.8,0.5-1.7,0.5-2.6c0-0.9-0.2-1.8-0.5-2.6c-0.3-0.8-0.9-1.6-1.5-2.2
			c-0.6-0.6-1.4-1.1-2.3-1.5c-0.8-0.3-1.7-0.5-2.7-0.5s-1.8,0.2-2.7,0.5c-0.8,0.3-1.6,0.9-2.3,1.5L13,9.3l1.4,1.4L17.5,7.6z"/>
		<path d="M21.5,10.4c-0.2-0.2-0.4-0.3-0.7-0.3s-0.5,0.1-0.7,0.3L17,13.5l1.4,1.4l3.1-3.1c0.2-0.2,0.3-0.4,0.3-0.7
			C21.8,10.9,21.7,10.6,21.5,10.4z"/>
		<path d="M10.3,20.7c-0.1,0.1-0.2,0.2-0.2,0.3C10,21.1,10,21.2,10,21.4s0,0.3,0.1,0.4c0.1,0.1,0.1,0.2,0.2,0.3
			c0.1,0.1,0.2,0.2,0.3,0.2c0.1,0.1,0.3,0.1,0.4,0.1c0.1,0,0.3,0,0.4-0.1c0.1-0.1,0.2-0.1,0.3-0.2l5.7-5.6L16,15.1L10.3,20.7z"/>
	</g>
</g>
</svg>
