<svg width="26" height="26" viewBox="0 0 26 26" fill="none" xmlns="http://www.w3.org/2000/svg">
<path d="M4 22.1495C5.46947 18.5382 8.94567 16 13 16C17.0543 16 20.5305 18.5382 22 22.1495C21.7488 22.4093 21.487 22.6584 21.2152 22.8958C19.984 19.4449 16.7569 17 13 17C9.24303 17 6.01591 19.4449 4.78471 22.8958C4.513 22.6584 4.25118 22.4093 4 22.1495Z" fill="white"/>
<rect width="26" height="26" rx="10" fill="#FAC62D"/>
<path d="M13 19C11 19 9 18.5 8.5 18C8.9902 16.7059 10.1765 14 13 14C15.8235 14 17.0098 16.7059 17.5 18C17 18.6176 15.1562 19 13 19Z" fill="white" fill-opacity="0.6"/>
<circle cx="13" cy="10" r="3" fill="white" fill-opacity="0.6"/>
</svg>
