<svg xmlns="http://www.w3.org/2000/svg" viewBox="0 0 32 32"><g id="Layer_114" data-name="Layer 114"><path d="M7.11,28H6.67A2.64,2.64,0,0,1,4.06,25.3v-11a2.64,2.64,0,0,1,2.61-2.67h.44a2.65,2.65,0,0,1,2.62,2.67v11A2.65,2.65,0,0,1,7.11,28ZM6.67,13.46a.88.88,0,0,0-.87.89v11a.88.88,0,0,0,.87.89h.44A.88.88,0,0,0,8,25.3v-11a.88.88,0,0,0-.87-.89ZM15,28h-.44a2.65,2.65,0,0,1-2.62-2.67v-16a2.65,2.65,0,0,1,2.62-2.67H15a2.64,2.64,0,0,1,2.61,2.67v16A2.64,2.64,0,0,1,15,28Zm-.44-19.6a.88.88,0,0,0-.87.89v16a.88.88,0,0,0,.87.89H15a.88.88,0,0,0,.87-.89v-16A.88.88,0,0,0,15,8.37ZM22.82,28h-.43a2.65,2.65,0,0,1-2.62-2.67V17.92a2.65,2.65,0,0,1,2.62-2.67h.43a2.65,2.65,0,0,1,2.62,2.67V25.3A2.65,2.65,0,0,1,22.82,28ZM22.39,17a.88.88,0,0,0-.88.89V25.3a.88.88,0,0,0,.88.89h.43a.88.88,0,0,0,.87-.89V17.92a.88.88,0,0,0-.87-.89Z"/><path d="M29,7.35a1,1,0,0,1-1,1H25.62v2.32a1,1,0,0,1-2,0V8.35H21.3a1,1,0,0,1,0-2h2.32V4a1,1,0,0,1,2,0V6.35H28A1,1,0,0,1,29,7.35Z"/></g></svg>