<svg xmlns="http://www.w3.org/2000/svg" viewBox="0 0 32 32"><g id="date"><path d="M25.25,6H23V5a1,1,0,0,0-2,0V6H11V5A1,1,0,0,0,9,5V6H6.75A2.75,2.75,0,0,0,4,8.75V25.29A2.75,2.75,0,0,0,6.75,28h18.5A2.75,2.75,0,0,0,28,25.29V8.75A2.75,2.75,0,0,0,25.25,6ZM26,25.29a.76.76,0,0,1-.75.75H6.75A.76.76,0,0,1,6,25.29V14H26ZM26,12H6V8.75A.76.76,0,0,1,6.75,8H9V9a1,1,0,0,0,2,0V8H21V9a1,1,0,0,0,2,0V8h2.25a.76.76,0,0,1,.75.75Zm-6.38,5.51-3.75,5.16a1,1,0,0,1-.76.41h0a1,1,0,0,1-.75-.34l-1.87-2.11a1,1,0,1,1,1.49-1.33L15,20.49l3-4.16a1,1,0,1,1,1.61,1.18Z"/></g></svg>