<svg width="28" height="21" viewBox="0 0 28 21" fill="none" xmlns="http://www.w3.org/2000/svg">
<path d="M26.9101 1.11005L26.5901 0.810054C25.9251 0.281469 25.0996 -0.00428607 24.2501 5.3694e-05H3.82014C2.97089 -0.00444174 2.14422 0.273458 1.47014 0.790054L1.15014 1.07005C0.783366 1.41069 0.491657 1.82408 0.293645 2.28381C0.0956338 2.74354 -0.00432791 3.23951 0.000143659 3.74005V16.3401C0.00444457 17.0525 0.21433 17.7485 0.604588 18.3445C0.994846 18.9406 1.54888 19.4112 2.20014 19.7001C2.71348 19.9114 3.26518 20.0136 3.82014 20.0001H24.2501C24.7836 19.9945 25.3107 19.8823 25.8001 19.6701C26.4446 19.3804 26.9935 18.9136 27.383 18.324C27.7725 17.7345 27.9865 17.0465 28.0001 16.3401V3.74005C28.0051 3.25085 27.911 2.76569 27.7237 2.31374C27.5364 1.86178 27.2597 1.45236 26.9101 1.11005ZM26.0001 3.74005V16.3401C26.0105 16.4264 26.0105 16.5137 26.0001 16.6001L19.3201 9.93005L26.0001 3.29005C26.0257 3.43896 26.0257 3.59114 26.0001 3.74005ZM3.82014 2.00005H24.3801L14.4701 12.0001C14.3525 12.1149 14.1946 12.1792 14.0301 12.1792C13.8657 12.1792 13.7078 12.1149 13.5901 12.0001L3.68014 2.05005L3.82014 2.00005ZM2.06014 16.6001C2.0548 16.5135 2.0548 16.4266 2.06014 16.3401V3.74005C2.05254 3.59223 2.066 3.44408 2.10014 3.30005L8.73014 9.93005L2.06014 16.6001ZM24.2501 18.0001H3.82014C3.70705 18.0104 3.59324 18.0104 3.48014 18.0001L10.1501 11.3301L12.1501 13.3301C12.6486 13.8057 13.3112 14.071 14.0001 14.071C14.6891 14.071 15.3516 13.8057 15.8501 13.3301L17.8501 11.3301L24.5801 18.0001C24.4704 18.0099 24.3599 18.0099 24.2501 18.0001Z" fill="#2B2E33"/>
</svg>
