<svg xmlns="http://www.w3.org/2000/svg" viewBox="0 0 103 70"><g id="fileUpload"><path d="M77,17.9a25.5,25.5,0,0,0-6.37.79,29.62,29.62,0,0,0-57.13,11,29.15,29.15,0,0,0,.49,5.37A17.67,17.67,0,0,0,18,70H77a26.05,26.05,0,0,0,0-52.1ZM77,68H18a15.68,15.68,0,0,1-2.73-31.17,1,1,0,0,0,.81-1.21,27.35,27.35,0,0,1-.65-5.93A27.63,27.63,0,0,1,69,20.23a1,1,0,0,0,1.22.62,23.74,23.74,0,0,1,6.7-1A24,24,0,0,1,77,68ZM59.87,37.19a1,1,0,0,1,0,1.41,1,1,0,0,1-1.41,0l-7.32-6.88V51.46a1,1,0,0,1-2,0V31.77l-7.31,6.88a1,1,0,1,1-1.37-1.46l9-8.44h0l0,0a.64.64,0,0,1,.14-.08.62.62,0,0,1,.17-.11.8.8,0,0,1,.34-.07h.07a.83.83,0,0,1,.34.07.82.82,0,0,1,.17.11.64.64,0,0,1,.14.08l0,0h0Z"/></g></svg>