<svg xmlns="http://www.w3.org/2000/svg" viewBox="0 0 32 32"><g id="frequencySolid"><path d="M25,4.1H7a3,3,0,0,0-3,3v18a3,3,0,0,0,3,3H25a3,3,0,0,0,3-3V7.1A3,3,0,0,0,25,4.1ZM10.07,22.59v-4.1a1.47,1.47,0,0,1,2.94,0v4.1a1.47,1.47,0,1,1-2.94,0Zm4.47,0V14.5a1.47,1.47,0,1,1,2.93,0v8.09a1.47,1.47,0,1,1-2.93,0Zm4.57,0V17.51a1.47,1.47,0,1,1,2.93,0v5.08a1.47,1.47,0,1,1-2.93,0ZM24.3,13,21,14a1,1,0,0,1-.29,0,1,1,0,0,1-.68-.26L16,10.15l-3.83,3.61a1,1,0,0,1-1.34,0l-3.51-3a1,1,0,0,1,1.3-1.52l2.83,2.41,3.86-3.63a1,1,0,0,1,1.36,0l4.21,3.86,2.81-.83a1,1,0,0,1,1.24.67A1,1,0,0,1,24.3,13Z"/></g></svg>