<svg xmlns="http://www.w3.org/2000/svg" viewBox="0 0 32 32"><g id="stickyNavIndiReport"><path d="M21.5,14.24a.76.76,0,0,1-.76.76H11.26a.76.76,0,0,1-.76-.76,5.26,5.26,0,0,1,3.56-5A3,3,0,0,1,13,7a3,3,0,0,1,6,0,3,3,0,0,1-1.06,2.28A5.24,5.24,0,0,1,21.5,14.24Zm-10.06,8A3,3,0,0,0,12.5,20a3,3,0,0,0-6,0,3,3,0,0,0,1.06,2.28,5.26,5.26,0,0,0-3.56,5,.76.76,0,0,0,.76.76h9.48a.76.76,0,0,0,.76-.76A5.24,5.24,0,0,0,11.44,22.28Zm13,0A3,3,0,0,0,25.5,20a3,3,0,0,0-6,0,3,3,0,0,0,1.06,2.28,5.26,5.26,0,0,0-3.56,5,.76.76,0,0,0,.76.76h9.48a.76.76,0,0,0,.76-.76A5.24,5.24,0,0,0,24.44,22.28Z"/></g></svg>