<svg xmlns="http://www.w3.org/2000/svg" viewBox="0 0 32 32"><g id="Layer_104" data-name="Layer 104"><path d="M10,21.34v6.31a.36.36,0,0,1,0,.11.54.54,0,0,1-.15.15l-.11,0H4.28l-.11,0A.54.54,0,0,1,4,27.76a.36.36,0,0,1,0-.11V21.34a.29.29,0,0,1,.28-.29H9.72A.29.29,0,0,1,10,21.34Zm12,6.25v0a.29.29,0,0,0,.3.3h0A.34.34,0,0,1,22,27.59Zm5.66.34h0a.29.29,0,0,0,.3-.3v0A.34.34,0,0,1,27.66,27.93Zm0-17.48H22.34a.35.35,0,0,0-.34.35V27.59a.34.34,0,0,0,.34.34h5.32a.34.34,0,0,0,.34-.34V10.8A.35.35,0,0,0,27.66,10.45ZM13,27.51v.12a.29.29,0,0,0,.3.3h.12A.42.42,0,0,1,13,27.51Zm5.58.42h.12a.29.29,0,0,0,.3-.3v-.12A.42.42,0,0,1,18.58,27.93Zm0-13.28H13.42a.42.42,0,0,0-.42.42V27.51a.42.42,0,0,0,.42.42h5.16a.42.42,0,0,0,.42-.42V15.07A.42.42,0,0,0,18.58,14.65ZM4.39,11,27.54,4.36A1,1,0,0,0,27,2.44L3.84,9.06a1,1,0,0,0,.28,2A1.26,1.26,0,0,0,4.39,11Z"/></g></svg>