<svg xmlns="http://www.w3.org/2000/svg" viewBox="0 0 32 32"><g id="link"><path d="M10.92,28.33A6.92,6.92,0,0,1,6,16.52l3.19-3.2a1,1,0,0,1,1.42,0,1,1,0,0,1,0,1.41l-3.2,3.2a4.92,4.92,0,0,0,7,7l3.2-3.19a1,1,0,0,1,1.41,0,1,1,0,0,1,0,1.41l-3.19,3.2A6.89,6.89,0,0,1,10.92,28.33ZM22.78,19,26,15.85a6.92,6.92,0,0,0-9.79-9.79L13,9.25a1,1,0,1,0,1.41,1.42l3.2-3.2a4.92,4.92,0,0,1,7,7l-3.2,3.2a1,1,0,0,0,.71,1.71A1,1,0,0,0,22.78,19ZM11.63,21.81,21.78,11.66a1,1,0,0,0,0-1.42,1,1,0,0,0-1.41,0L10.22,20.4a1,1,0,0,0,0,1.41,1,1,0,0,0,.7.29A1,1,0,0,0,11.63,21.81Z"/></g></svg>