<svg width="16" height="16" viewBox="0 0 16 16" fill="none" xmlns="http://www.w3.org/2000/svg">
<path fill-rule="evenodd" clip-rule="evenodd" d="M15 8C15 11.866 11.866 15 8 15C4.13401 15 1 11.866 1 8C1 4.13401 4.13401 1 8 1C11.866 1 15 4.13401 15 8ZM8 14C11.3137 14 14 11.3137 14 8C14 4.68629 11.3137 2 8 2C4.68629 2 2 4.68629 2 8C2 11.3137 4.68629 14 8 14Z" fill="#818282"/>
<path d="M5.23 8.96C5.63317 8.96 5.96 8.63317 5.96 8.23C5.96 7.82683 5.63317 7.5 5.23 7.5C4.82683 7.5 4.5 7.82683 4.5 8.23C4.5 8.63317 4.82683 8.96 5.23 8.96Z" fill="#818282"/>
<path d="M7.99999 8.96C8.40316 8.96 8.72999 8.63317 8.72999 8.23C8.72999 7.82683 8.40316 7.5 7.99999 7.5C7.59682 7.5 7.26999 7.82683 7.26999 8.23C7.26999 8.63317 7.59682 8.96 7.99999 8.96Z" fill="#818282"/>
<path d="M10.77 8.96C11.1731 8.96 11.5 8.63317 11.5 8.23C11.5 7.82683 11.1731 7.5 10.77 7.5C10.3668 7.5 10.04 7.82683 10.04 8.23C10.04 8.63317 10.3668 8.96 10.77 8.96Z" fill="#818282"/>
</svg>
