<svg xmlns="http://www.w3.org/2000/svg" viewBox="0 0 32 32"><g id="mypage_myinfo"><path d="M16,2A14,14,0,1,0,30,16,14,14,0,0,0,16,2Zm0,26a12,12,0,0,1-7.24-2.44,7,7,0,0,1,.43-1.19,2.44,2.44,0,0,1,.14-.28,3.23,3.23,0,0,1,.22-.41,4.45,4.45,0,0,1,.33-.51,4.63,4.63,0,0,1,.32-.42l.17-.21a4.21,4.21,0,0,1,.36-.37,2.92,2.92,0,0,1,.37-.34l.18-.15c.12-.1.24-.2.37-.29l.1-.07.32-.21a2.68,2.68,0,0,1,.33-.18,6.71,6.71,0,0,1,1.29-.56,2.54,2.54,0,0,1,.45-.13,7.33,7.33,0,0,1,3.72,0,1.55,1.55,0,0,1,.23.06l.22.07a6.71,6.71,0,0,1,1.29.56l.33.18.32.21.1.07c.13.09.25.19.37.29a1.19,1.19,0,0,1,.18.15,2.92,2.92,0,0,1,.37.34,4.21,4.21,0,0,1,.36.37l.17.21a4.63,4.63,0,0,1,.32.42,4.45,4.45,0,0,1,.33.51,3.23,3.23,0,0,1,.22.41,2.44,2.44,0,0,1,.14.28,7,7,0,0,1,.43,1.19A12,12,0,0,1,16,28ZM12,14a4,4,0,1,1,4,4A4,4,0,0,1,12,14ZM24.86,24.08a8.62,8.62,0,0,0-.62-1.3c-.08-.14-.16-.27-.25-.4a3.6,3.6,0,0,0-.39-.57,2.48,2.48,0,0,0-.29-.37,1,1,0,0,0-.13-.16,5.11,5.11,0,0,0-.39-.42l-.21-.21a9.29,9.29,0,0,0-2-1.49,4.66,4.66,0,0,0-.5-.25,3,3,0,0,0-.37-.17,6,6,0,1,0-7.34,0,3,3,0,0,0-.37.17,4.66,4.66,0,0,0-.5.25,9.29,9.29,0,0,0-2,1.49l-.21.21a3.7,3.7,0,0,0-.38.42.48.48,0,0,0-.13.16,2,2,0,0,0-.3.37,3.6,3.6,0,0,0-.39.57c-.09.13-.17.26-.25.4a8.62,8.62,0,0,0-.62,1.3,12,12,0,1,1,17.72,0Z"/></g></svg>