<svg width="14" height="14" viewBox="0 0 14 14" fill="none" xmlns="http://www.w3.org/2000/svg">
<path d="M11.25 13.5H2.25C1.85218 13.5 1.47064 13.342 1.18934 13.0607C0.908035 12.7794 0.75 12.3978 0.75 12V3C0.75 2.60218 0.908035 2.22064 1.18934 1.93934C1.47064 1.65804 1.85218 1.5 2.25 1.5H6.75C6.88261 1.5 7.00979 1.55268 7.10355 1.64645C7.19732 1.74021 7.25 1.86739 7.25 2C7.25 2.13261 7.19732 2.25979 7.10355 2.35355C7.00979 2.44732 6.88261 2.5 6.75 2.5H2.25C2.11739 2.5 1.99021 2.55268 1.89645 2.64645C1.80268 2.74021 1.75 2.86739 1.75 3V12C1.75 12.1326 1.80268 12.2598 1.89645 12.3536C1.99021 12.4473 2.11739 12.5 2.25 12.5H11.25C11.3826 12.5 11.5098 12.4473 11.6036 12.3536C11.6973 12.2598 11.75 12.1326 11.75 12V7.5C11.75 7.36739 11.8027 7.24021 11.8964 7.14645C11.9902 7.05268 12.1174 7 12.25 7C12.3826 7 12.5098 7.05268 12.6036 7.14645C12.6973 7.24021 12.75 7.36739 12.75 7.5V12C12.75 12.3978 12.592 12.7794 12.3107 13.0607C12.0294 13.342 11.6478 13.5 11.25 13.5Z" fill="#2B2E33"/>
<path d="M5.39775 8.35215C5.44418 8.399 5.49942 8.43618 5.56029 8.46156C5.62116 8.48693 5.68644 8.5 5.75238 8.5C5.81832 8.5 5.8836 8.48693 5.94447 8.46156C6.00533 8.43618 6.06058 8.399 6.10701 8.35215L12.2457 2.2094V4.99838C12.2457 5.13094 12.2983 5.25807 12.3919 5.3518C12.4856 5.44554 12.6127 5.4982 12.7451 5.4982C12.8776 5.4982 13.0046 5.44554 13.0983 5.3518C13.192 5.25807 13.2446 5.13094 13.2446 4.99838L13.2446 0.999838C13.2518 0.958496 13.2518 0.916225 13.2446 0.874883C13.2491 0.851771 13.2491 0.828022 13.2446 0.804909C13.2203 0.745334 13.1847 0.691026 13.1397 0.644968C13.0921 0.60204 13.0382 0.566644 12.9799 0.540006C12.9568 0.535553 12.9331 0.535553 12.91 0.540006C12.8592 0.513146 12.8025 0.499401 12.7451 0.50002L8.74927 0.50002C8.6168 0.50002 8.48976 0.552678 8.39609 0.646412C8.30241 0.740146 8.24979 0.867278 8.24979 0.999837C8.24979 1.1324 8.30241 1.25953 8.39609 1.35326C8.48976 1.447 8.6168 1.49965 8.74927 1.49965L11.5364 1.49966L5.39775 7.64241C5.35093 7.68888 5.31377 7.74416 5.28841 7.80507C5.26306 7.86597 5.25 7.9313 5.25 7.99728C5.25 8.06327 5.26306 8.12859 5.28841 8.1895C5.31377 8.25041 5.35093 8.30569 5.39775 8.35215Z" fill="#2B2E33"/>
</svg>
