<svg xmlns="http://www.w3.org/2000/svg" viewBox="0 0 32 53.01"><g id="rocket"><path d="M16,21.86a4.3,4.3,0,1,1,4.29-4.3A4.3,4.3,0,0,1,16,21.86Zm0-6.59a2.3,2.3,0,1,0,2.29,2.29A2.3,2.3,0,0,0,16,15.27Zm8.47,9.47.65-3.19A18.14,18.14,0,0,0,20.26,5l0,0a16.93,16.93,0,0,0-1.66-1.49l-1.3-1a2.12,2.12,0,0,0-2.55,0l-1.28,1A18.06,18.06,0,0,0,11.77,5s0,0,0,0A18.12,18.12,0,0,0,6.88,21.54l.66,3.23A11.51,11.51,0,0,0,2,34.56a1,1,0,0,0,.29.71,1,1,0,0,0,.71.29H15v3.52a1,1,0,0,0,2,0V35.56H29a1,1,0,0,0,1-1A11.47,11.47,0,0,0,24.47,24.74ZM14.66,5.07l1.27-1a.09.09,0,0,1,.12,0l1.28,1c.31.24.61.5.9.77a3,3,0,0,1-2.23,1,3,3,0,0,1-2.23-1C14.05,5.57,14.35,5.31,14.66,5.07ZM4.09,33.56A9.53,9.53,0,0,1,8,26.88l1.36,6.68Zm16.53,0H17v-7.1a1,1,0,0,0-2,0v7.1H11.38L8.84,21.14A16.09,16.09,0,0,1,12.37,7.27a5,5,0,0,0,7.26,0,16.1,16.1,0,0,1,3.53,13.87L22.37,25Zm2.05,0L24,26.86a9.45,9.45,0,0,1,3.87,6.7ZM17,50.14V43.51a1,1,0,0,0-2,0v6.63a1,1,0,0,0,2,0Zm-3.45-4.09V41.23a1,1,0,0,0-2,0v4.82a1,1,0,0,0,2,0Zm6.9,0V41.23a1,1,0,0,0-2,0v4.82a1,1,0,0,0,2,0Z"/></g></svg>