<svg xmlns="http://www.w3.org/2000/svg" viewBox="0 0 32 32"><g id="sankeyChart"><path d="M25,4H7A3,3,0,0,0,4,7V25a3,3,0,0,0,3,3H25a3,3,0,0,0,3-3V7A3,3,0,0,0,25,4Zm1,21a1,1,0,0,1-1,1H7a1,1,0,0,1-1-1V7A1,1,0,0,1,7,6H25a1,1,0,0,1,1,1ZM11,19.84,23,16a.76.76,0,0,0,.75-.75V9.71a.75.75,0,0,0-1.5,0v.34c-3,.21-4.62,2-5.88,4l-.51-.56c-1.66-1.81-3.24-3.53-6.11-3.79V9.5a.75.75,0,0,0-1.5,0v7a.75.75,0,0,0,1.5,0,13.68,13.68,0,0,1,4.24,1,6,6,0,0,1-4.26,2.17A.74.74,0,0,0,9,19.09a.75.75,0,0,0-.75.75v3.41A.76.76,0,0,0,9,24a.74.74,0,0,0,.74-.68,9.81,9.81,0,0,0,7.55-3.83l.49.38A8.64,8.64,0,0,0,22.25,22v.24a.75.75,0,0,0,1.5,0V17.75a.75.75,0,0,0-1.48-.14,6.56,6.56,0,0,1-2.7-1A4.35,4.35,0,0,1,22.25,15v.3A.76.76,0,0,0,23,16ZM9.75,15v-3.8c2.22.24,3.47,1.6,5,3.29q.38.42.78.84c-.2.32-.4.64-.61.94A16.57,16.57,0,0,0,9.75,15Zm12.5,4.14v1.36a7.47,7.47,0,0,1-3.56-1.81l-.47-.36c.07-.09.14-.17.2-.26l.21-.28A8,8,0,0,0,22.25,19.13ZM17.89,16.3a.61.61,0,0,0-.07.1c-.21.25-.41.5-.6.76-1.64,2.17-3.34,4.42-7.47,4.65v-.62a7.72,7.72,0,0,0,6-3.55,0,0,0,0,0,0,0l.06-.09c.41-.56.78-1.15,1.13-1.71l.12-.2c1.31-2.07,2.49-3.85,5.14-4.08v1.9A6.39,6.39,0,0,0,17.89,16.3Z"/></g></svg>