<svg xmlns="http://www.w3.org/2000/svg" viewBox="0 0 32 32"><g id="semiCircleChart"><path d="M25,4H7A3,3,0,0,0,4,7V25a3,3,0,0,0,3,3H25a3,3,0,0,0,3-3V7A3,3,0,0,0,25,4Zm1,21a1,1,0,0,1-1,1H7a1,1,0,0,1-1-1V7A1,1,0,0,1,7,6H25a1,1,0,0,1,1,1Zm-4.15-9.46a7.39,7.39,0,0,0-1.36-1.09l1.43-3.33a1,1,0,0,0-1.84-.79l-1.4,3.25a7.85,7.85,0,0,0-2.56-.42h0A8.12,8.12,0,0,0,8,21.27a1,1,0,0,0,.29.71,1,1,0,0,0,.71.29H23.23a1,1,0,0,0,1-1A8,8,0,0,0,21.85,15.54ZM11.64,20.27H10.08a6.13,6.13,0,0,1,6-5.11h0a6.16,6.16,0,0,1,1.77.26l-.62,1.42a4.37,4.37,0,0,0-1.15-.15h0A4.55,4.55,0,0,0,12.87,18,4.49,4.49,0,0,0,11.64,20.27Zm2.09,0a2.59,2.59,0,0,1,4.77,0Zm6.86,0a4.56,4.56,0,0,0-1.53-2.51l.62-1.44a5,5,0,0,1,.76.63,6,6,0,0,1,1.71,3.32Z"/></g></svg>