<svg xmlns="http://www.w3.org/2000/svg" viewBox="0 0 32 32"><g id="설정"><path d="M16,20.51A4.51,4.51,0,1,1,20.51,16,4.51,4.51,0,0,1,16,20.51Zm0-7A2.51,2.51,0,1,0,18.51,16,2.52,2.52,0,0,0,16,13.49ZM19.51,29h-7a1,1,0,0,1-1-1V26a11,11,0,0,1-1.93-1.11l-1.7,1a1,1,0,0,1-.76.1,1.06,1.06,0,0,1-.61-.47L3,19.46a1.05,1.05,0,0,1-.1-.76,1,1,0,0,1,.47-.6l1.71-1A10.32,10.32,0,0,1,5,16a10.46,10.46,0,0,1,.06-1.11l-1.71-1a1,1,0,0,1-.47-.61,1.06,1.06,0,0,1,.1-.76L6.49,6.46A1,1,0,0,1,7.1,6a1,1,0,0,1,.76.1l1.7,1A12.36,12.36,0,0,1,11.49,6V4a1,1,0,0,1,1-1h7a1,1,0,0,1,1,1V6a12.36,12.36,0,0,1,1.93,1.11l1.7-1A1,1,0,0,1,24.9,6a1,1,0,0,1,.61.46L29,12.54a1.06,1.06,0,0,1,.1.76,1,1,0,0,1-.47.61l-1.71,1A10.46,10.46,0,0,1,27,16a10.32,10.32,0,0,1-.06,1.11l1.71,1a1,1,0,0,1,.47.6,1.05,1.05,0,0,1-.1.76l-3.51,6.08a1.06,1.06,0,0,1-.61.47,1,1,0,0,1-.76-.1l-1.7-1A11,11,0,0,1,20.51,26v2A1,1,0,0,1,19.51,29Zm-6-2h5V25.36a1,1,0,0,1,.65-.93A9.44,9.44,0,0,0,21.73,23a1,1,0,0,1,1.13-.09l1.41.82,2.51-4.35-1.42-.82a1,1,0,0,1-.49-1A8.3,8.3,0,0,0,25,16a8.19,8.19,0,0,0-.13-1.47,1,1,0,0,1,.49-1l1.42-.82L24.27,8.33l-1.41.82a1,1,0,0,1-1.13-.09,9,9,0,0,0-2.57-1.48,1,1,0,0,1-.65-.94V5h-5V6.64a1,1,0,0,1-.65.94,9,9,0,0,0-2.57,1.48,1,1,0,0,1-1.13.09L7.73,8.33,5.22,12.68l1.42.82a1,1,0,0,1,.49,1A8.19,8.19,0,0,0,7,16a8.3,8.3,0,0,0,.13,1.48,1,1,0,0,1-.49,1l-1.42.82,2.51,4.35,1.41-.82a1,1,0,0,1,1.13.09,9.44,9.44,0,0,0,2.57,1.48,1,1,0,0,1,.65.93Z"/></g></svg>