<svg width="24" height="25" viewBox="0 0 24 25" fill="none" xmlns="http://www.w3.org/2000/svg">
<path d="M21 25H3C2.20435 25 1.44129 24.684 0.87868 24.1214C0.316071 23.5588 0 22.7957 0 22V13.0001C0 12.7348 0.105357 12.4805 0.292893 12.2929C0.48043 12.1054 0.734784 12.0001 1 12.0001C1.26522 12.0001 1.51957 12.1054 1.70711 12.2929C1.89464 12.4805 2 12.7348 2 13.0001V22C2 22.2653 2.10536 22.5196 2.29289 22.7072C2.48043 22.8947 2.73478 23 3 23H21C21.2652 23 21.5196 22.8947 21.7071 22.7072C21.8946 22.5196 22 22.2653 22 22V13.0001C22 12.7348 22.1054 12.4805 22.2929 12.2929C22.4804 12.1054 22.7348 12.0001 23 12.0001C23.2652 12.0001 23.5196 12.1054 23.7071 12.2929C23.8946 12.4805 24 12.7348 24 13.0001V22C24 22.7957 23.6839 23.5588 23.1213 24.1214C22.5587 24.684 21.7956 25 21 25ZM17.74 6.28005L12.74 1.28005C12.5526 1.0938 12.2992 0.989258 12.035 0.989258C11.7708 0.989258 11.5174 1.0938 11.33 1.28005L6.33 6.28005C6.16617 6.47135 6.08057 6.71743 6.09029 6.9691C6.10001 7.22078 6.20434 7.45952 6.38244 7.63761C6.56053 7.81571 6.79927 7.92004 7.05095 7.92976C7.30262 7.93948 7.5487 7.85388 7.74 7.69005L11 4.40005V17C11 17.2653 11.1054 17.5196 11.2929 17.7072C11.4804 17.8947 11.7348 18 12 18C12.2652 18 12.5196 17.8947 12.7071 17.7072C12.8946 17.5196 13 17.2653 13 17V4.40005L16.29 7.69005C16.4813 7.85388 16.7274 7.93948 16.9791 7.92976C17.2307 7.92004 17.4695 7.81571 17.6476 7.63761C17.8257 7.45952 17.93 7.22078 17.9397 6.9691C17.9494 6.71743 17.8638 6.47135 17.7 6.28005H17.74Z" fill="#2B2E33"/>
</svg>
